<svg xmlns="http://www.w3.org/2000/svg" width="125" height="128.362" viewBox="0 0 125 128.362">
  <path id="engranaje" d="M129.536,78.249l-11.8-9.227a42.934,42.934,0,0,0,0-9.691l11.81-9.23a5.787,5.787,0,0,0,1.4-7.376L118.667,21.514a5.8,5.8,0,0,0-7.1-2.56l-13.906,5.6A47.638,47.638,0,0,0,89.309,19.7L87.177,4.921A5.685,5.685,0,0,0,81.5,0h-24.6a5.668,5.668,0,0,0-5.648,4.878L49.105,19.689a49.4,49.4,0,0,0-8.343,4.857l-13.952-5.6a5.685,5.685,0,0,0-7.043,2.509L7.488,42.709a5.745,5.745,0,0,0,1.4,7.407l11.8,9.227a42.527,42.527,0,0,0,0,9.691L8.874,78.26a5.782,5.782,0,0,0-1.4,7.376L19.743,106.86a5.8,5.8,0,0,0,7.1,2.56l13.906-5.6a47.857,47.857,0,0,0,8.36,4.857l2.139,14.762a5.668,5.668,0,0,0,5.646,4.919H81.5a5.668,5.668,0,0,0,5.668-4.878L89.3,108.672a49.5,49.5,0,0,0,8.343-4.857l13.959,5.61a5.69,5.69,0,0,0,7.043-2.509l12.32-21.342A5.771,5.771,0,0,0,129.536,78.249ZM69.2,90.924A26.742,26.742,0,1,1,95.937,64.182,26.742,26.742,0,0,1,69.2,90.924Z" transform="translate(-6.704 0)" fill="#455a64"/>
</svg>
