<svg xmlns="http://www.w3.org/2000/svg" xmlns:xlink="http://www.w3.org/1999/xlink" width="132.292" height="132.293" viewBox="0 0 132.292 132.293">
  <defs>
    <linearGradient id="linear-gradient" y1="-36.795" x2="37.795" y2="1" gradientUnits="objectBoundingBox">
      <stop offset="0" stop-color="#f50022"/>
      <stop offset="1" stop-color="#81004f"/>
    </linearGradient>
  </defs>
  <g id="fazticon" transform="translate(0 -164.708)">
    <path id="path1237" class='pcolor' d="M66.021,164.708l-.352,0-.352,0-.351.005-.352.007-.351.009-.352.011-.351.013-.351.014-.351.016-.351.019-.351.02-.351.022-.351.024-.351.026-.351.028-.35.029-.35.031-.35.034-.35.035L59,165.1l-.349.039-.35.041-.349.042-.349.044-.348.047-.349.048-.348.05-.348.052-.347.054-.348.056-.347.057-.347.059-.347.061-.346.063-.346.065-.346.067-.345.069-.345.07-.344.072-.344.074-.344.076-.343.077-.343.08-.342.081-.342.083-.341.085-.341.087-.341.089-.34.09-.34.092-.339.094-.338.1-.338.1-.337.1-.337.1-.336.1-.336.1-.335.106-.335.108-.334.11-.333.112-.333.114-.332.115-.332.117-.331.119-.33.12-.33.122-.329.125-.329.126-.328.128-.327.129-.327.131-.326.133-.325.135-.324.136-.324.138-.322.14-.322.142-.321.144-.32.145-.32.147-.319.148-.318.15-.317.152-.317.153-.316.155-.315.157-.314.159-.313.16-.313.162-.311.163-.311.165-.31.166-.309.168-.308.17-.307.172-.306.174-.305.175-.3.177-.3.178-.3.18-.3.181-.3.183-.3.185-.3.186-.3.188-.3.19-.3.191-.295.193-.293.194-.292.2-.291.2-.29.2-.289.2-.288.2-.287.2-.286.2-.285.207-.284.208-.283.209-.282.211-.28.212-.28.214-.278.215-.277.217-.276.218-.275.22-.273.221-.272.222-.271.224-.27.226-.269.227-.268.228-.267.229-.265.231-.264.233-.263.234-.261.235-.26.237-.259.238-.257.239-.256.241-.255.242-.254.244-.252.245-.251.246-.25.248-.249.249-.247.25-.246.252-.244.253-.243.254-.242.256-.241.257-.239.258-.238.259-.237.26-.235.262-.234.263-.232.264-.231.266-.229.267-.228.268-.227.269-.225.27-.224.272-.222.273-.221.274-.219.275-.218.276-.217.277-.214.279-.213.28-.212.281-.21.282-.209.283-.207.284-.206.285-.2.286-.2.288-.2.288-.2.29-.2.29-.2.292-.195.293-.194.294-.192.295-.19.3-.189.3-.187.3-.186.3-.184.3-.182.3-.181.3-.179.3-.177.3-.176.3-.174.305-.173.306-.171.307-.169.308-.168.309-.166.31-.164.311-.163.312-.161.313-.16.314-.158.314-.157.315-.155.316-.152.317-.151.318-.149.318-.148.319-.146.32-.145.321-.143.321-.141.322-.139.323-.137.324-.136.324-.134.326-.132.326-.131.327-.129.327-.127.328-.125.329-.124.329-.121.33-.12.331-.118.331-.116.332-.115.333-.113.333-.111.334-.11.334q-.054.167-.108.335t-.106.335q-.052.168-.1.336t-.1.336q-.051.168-.1.337t-.1.338q-.049.169-.1.338t-.1.338q-.047.17-.093.34t-.092.34q-.045.17-.09.34t-.088.341q-.044.17-.086.341t-.084.342q-.042.171-.082.342t-.081.343q-.04.171-.079.343t-.077.343q-.038.172-.075.344t-.073.344q-.036.172-.071.345t-.07.345q-.034.172-.068.345t-.066.345q-.033.173-.064.346t-.062.346q-.031.173-.061.346T.9,220q-.029.174-.057.347t-.055.348q-.027.174-.053.348t-.052.348q-.025.174-.049.348t-.048.349q-.023.174-.046.349t-.044.349q-.021.175-.042.349t-.04.349q-.02.175-.038.35t-.036.35q-.018.175-.035.35t-.033.35q-.016.175-.031.35t-.029.351q-.014.175-.027.35t-.025.351q-.012.176-.023.351t-.022.351q-.01.176-.02.351t-.018.351q-.008.176-.016.351t-.014.351q-.007.176-.012.351t-.01.352q0,.176-.008.351t-.007.352q0,.176-.005.352t0,.351q0,.176,0,.352v.126q0,.176,0,.352t0,.352q0,.176.005.351t.007.352q0,.176.009.351t.011.352q.006.176.013.351t.014.351q.008.176.017.351T.1,234.5q.01.176.02.351t.022.351q.012.176.024.351t.026.351q.013.175.028.351t.029.35q.015.175.031.35t.034.35q.017.175.035.35t.037.35q.019.175.039.349t.041.35q.021.174.042.349t.044.349q.023.174.047.348t.048.349q.025.174.05.348t.052.348q.026.174.054.347t.056.348q.028.173.057.347t.059.347q.03.173.061.347t.063.346q.032.173.065.346t.067.346q.034.173.069.345t.07.345q.036.172.072.344t.074.344q.038.172.076.344t.077.343q.039.171.08.343t.081.342q.041.171.083.342T2,247q.043.171.087.341t.089.341q.045.17.09.34t.092.339q.047.17.094.339t.1.338q.048.169.1.338t.1.337q.05.169.1.337t.1.336q.052.168.1.336t.106.335q.054.168.109.335l.11.334.112.333.113.333.116.332.117.332.119.331.12.33.122.33.125.329.126.329.128.328.129.327.131.327.133.326.135.325.136.324.138.324.14.322.142.322.144.321.145.32.147.32.148.319.15.318.152.317.153.317.155.316.157.315.159.314.16.313.162.313.163.311.165.311.166.31.168.309.17.308.172.307.174.306.175.305.177.3.178.3.18.3.181.3.183.3.184.3.186.3.188.3.19.3.191.3.193.295.194.293.2.292.2.291.2.29.2.289.2.288.2.287.2.286.207.285.208.284.209.283.211.282.212.28.214.28.215.278.217.277.218.276.22.275.221.273.222.272.224.271.226.27.227.269.228.268.229.267.232.265.233.264.234.263.235.261.237.26.238.259.239.257.241.256.242.255.244.254.245.252.246.251.248.25.249.249.25.247.252.246.253.244.254.243.256.242.257.241.258.239.259.238.26.237.262.235.263.234.264.232.266.231.267.229.268.228.269.227.27.225.272.224.273.222.274.221.275.219.276.218.278.216.279.214.28.213.281.212.282.21.283.209.284.207.285.206.286.2.288.2.288.2.29.2.29.2.292.2.292.195.294.194.295.192.3.19.3.189.3.187.3.186.3.184.3.182.3.181.3.179.3.177.3.176.305.174.306.173.307.171.308.169.309.168.31.166.311.164.312.163.313.161.314.16.314.158.315.157.316.155.317.152.318.151.318.149.319.148.32.146.321.145.321.143.322.141.323.139.323.137.325.136.326.134.326.132.327.131.327.129.328.127.329.125.329.124.33.121.331.12.331.118.332.116.333.115.333.113.334.111.334.11.335.108.335.106.336.1.336.1.337.1.338.1.338.1.338.1.34.094.34.091.34.09.341.088.341.086.342.084.342.082.343.081.343.079.343.077.344.075.344.073.345.071.345.07.345.068.345.066.346.064.346.062.346.061.347.058.347.057.348.055.348.053.348.052.348.049.349.048.349.046.349.044.349.042.349.04.35.038.35.036.35.035.35.033.35.031.351.029.35.027.351.025.351.023.351.022.351.02.351.018.351.016.351.014.351.012.352.01.351.008.352.007.352.005.351,0h.477l.352,0,.352,0,.351-.005.352-.007.351-.009.352-.011.351-.013.351-.014.351-.017.351-.019.351-.02.351-.022.351-.024.351-.026.351-.028.35-.029.35-.032.35-.034.35-.035.35-.037.349-.039.35-.041.349-.042.349-.044.348-.047.349-.048.348-.05.348-.052.347-.054.348-.056.347-.057.347-.059.347-.061.346-.063.346-.065.346-.067.345-.069.345-.07.344-.072.344-.074.344-.076.343-.078.343-.08.342-.081.342-.083.341-.085.341-.087.341-.089.34-.09.339-.092.339-.094.338-.1.338-.1.337-.1.337-.1.336-.1.336-.1.335-.106.335-.108.334-.11.333-.112.333-.113.332-.116.332-.117.331-.119.33-.12.33-.122.329-.125.329-.126.328-.128.327-.129.327-.131.326-.133.325-.135.324-.136.324-.138.322-.14.322-.142.321-.144.32-.145.32-.147.319-.148.318-.15.317-.152.317-.153.316-.155.315-.157.314-.159.313-.16.313-.162.311-.163.311-.165.31-.166.309-.168.308-.17.307-.172.306-.174.305-.175.3-.177.3-.178.3-.18.3-.181.3-.183.3-.185.3-.186.3-.188.3-.19.3-.191.295-.193.293-.194.292-.2.291-.2.29-.2.289-.2.288-.2.287-.2.286-.2.285-.207.284-.208.283-.209.282-.211.28-.212.28-.214.278-.215.277-.217.276-.218.275-.22.273-.221.272-.222.271-.224.27-.226.269-.227.268-.228.267-.229.265-.232.264-.233.263-.234.261-.235.26-.237.259-.238.257-.239.256-.241.255-.242.254-.244.252-.245.251-.246.25-.248.249-.249.247-.25.246-.252.244-.253.243-.254.242-.256.241-.257.239-.258.238-.259.237-.26.235-.262.234-.263.232-.264.231-.266.229-.267.228-.268.227-.269.225-.27.224-.272.222-.273.221-.274.219-.275.218-.276.217-.277.214-.279.213-.28.212-.281.21-.282.209-.283.207-.284.206-.285.2-.286.2-.288.2-.288.2-.29.2-.29.2-.292.195-.293.194-.294.192-.295.19-.3.189-.3.187-.3.186-.3.184-.3.182-.3.181-.3.179-.3.177-.3.176-.3.174-.305.173-.306.171-.307.169-.309.168-.309.166-.31.164-.311.163-.312.161-.313.16-.314.158-.314.157-.315.155-.316.152-.317.151-.318.149-.318.148-.319.146-.32.145-.321.143-.321.141-.322.139-.323.137-.323.136-.325.134-.326.132-.326.131-.327.129-.327.127-.328.125-.329.124-.329.121-.33.12-.331.118-.331.116-.332.115-.333.113-.333q.056-.167.111-.334t.11-.334l.108-.335q.053-.168.106-.335t.1-.336q.052-.168.1-.336t.1-.337q.05-.169.1-.338t.1-.338q.048-.169.1-.338t.093-.34q.046-.17.092-.339t.09-.34q.044-.17.088-.341t.086-.341q.043-.171.084-.342t.082-.342q.041-.171.081-.343t.078-.343q.039-.171.077-.343t.075-.344q.037-.172.073-.344t.071-.345q.035-.172.07-.345t.068-.345q.034-.173.066-.345t.064-.346q.032-.173.063-.346t.06-.346q.03-.173.058-.347t.057-.347q.028-.174.055-.348t.053-.348q.026-.174.052-.348t.049-.348q.024-.174.048-.349t.046-.349q.022-.174.044-.349t.042-.349q.021-.175.04-.349t.038-.35q.019-.175.036-.35t.035-.35q.017-.175.033-.35t.031-.35q.015-.175.029-.351t.027-.35q.013-.175.025-.351t.023-.351q.011-.175.022-.351t.02-.351q.009-.176.018-.351t.016-.351q.007-.176.014-.351t.012-.351q.006-.176.01-.352t.008-.351q0-.176.007-.352t0-.352q0-.176,0-.351t0-.352v-.126q0-.176,0-.352t0-.351q0-.176-.005-.352t-.007-.352q0-.176-.009-.351t-.011-.352q-.006-.176-.013-.351t-.014-.351q-.008-.176-.016-.351t-.019-.351q-.01-.176-.02-.351t-.022-.351q-.012-.175-.024-.351t-.026-.351q-.013-.175-.028-.351t-.03-.35q-.015-.175-.031-.35t-.034-.35q-.017-.175-.035-.35t-.037-.35q-.019-.175-.039-.349t-.041-.35q-.021-.174-.042-.349t-.044-.349q-.023-.174-.046-.348t-.048-.349q-.025-.174-.05-.348t-.052-.348q-.026-.174-.054-.347t-.056-.348q-.028-.173-.057-.347t-.059-.347q-.03-.173-.061-.347t-.063-.346q-.032-.173-.065-.346t-.067-.346q-.034-.173-.069-.345t-.07-.345q-.036-.172-.072-.344t-.074-.344q-.038-.172-.076-.344t-.077-.343q-.039-.171-.08-.343t-.081-.342q-.041-.171-.083-.342t-.085-.341q-.043-.171-.087-.341t-.089-.341q-.045-.17-.09-.34t-.092-.34q-.047-.17-.094-.339t-.1-.339q-.048-.169-.1-.338t-.1-.337q-.05-.169-.1-.337t-.1-.336q-.052-.168-.1-.336t-.106-.335q-.054-.168-.109-.335l-.11-.334-.112-.333-.113-.333-.116-.332-.117-.332-.119-.331-.12-.33-.122-.33-.125-.329-.126-.329-.128-.328-.129-.327-.131-.327-.133-.326-.135-.325-.136-.324-.138-.324-.14-.322-.142-.322-.144-.321-.145-.32-.147-.32-.148-.319-.15-.318-.152-.317-.153-.317-.155-.316-.157-.315-.159-.314-.16-.313-.162-.313-.163-.311-.165-.311-.166-.31-.168-.309-.17-.308-.172-.307-.174-.306-.175-.305-.177-.3-.178-.3-.18-.3-.181-.3-.183-.3-.184-.3-.186-.3-.188-.3-.19-.3-.191-.3-.193-.295-.194-.293-.2-.292-.2-.291-.2-.29-.2-.289-.2-.288-.2-.287-.2-.286-.207-.285-.208-.284-.209-.283-.211-.282-.212-.28-.214-.28-.215-.278-.217-.277-.218-.276-.22-.275-.221-.273-.222-.272-.224-.271-.226-.27-.227-.269-.228-.268-.229-.267-.232-.265-.233-.264-.234-.263-.235-.261-.237-.26-.238-.259-.239-.257-.241-.256-.242-.255-.244-.254-.245-.252-.246-.251-.248-.25-.249-.249-.25-.247-.252-.246-.253-.244-.254-.243-.256-.242-.257-.241-.258-.239-.259-.238-.26-.237-.262-.235-.263-.234-.264-.232-.266-.231-.267-.229-.268-.228-.269-.227-.27-.225-.272-.224-.273-.222-.274-.221-.275-.219-.276-.218-.277-.217-.279-.214-.28-.213-.281-.212-.282-.21-.283-.209-.284-.207-.285-.206-.286-.2-.288-.2-.288-.2-.29-.2-.29-.2-.292-.2-.292-.195-.294-.194-.295-.192-.3-.19-.3-.189-.3-.187-.3-.186-.3-.184-.3-.182-.3-.181-.3-.179-.3-.177-.3-.176-.305-.174-.306-.173-.307-.172-.309-.169-.309-.168-.31-.166-.311-.164-.312-.163-.313-.161-.314-.16-.314-.158-.315-.157-.316-.155-.317-.152-.318-.151-.318-.149-.319-.148-.32-.146-.321-.145-.321-.143-.322-.141-.323-.14-.323-.137-.325-.136-.326-.134-.326-.132-.327-.131-.327-.129-.328-.127-.329-.125-.329-.124-.33-.121-.331-.12-.331-.118-.332-.116-.333-.115-.333-.113-.334-.111-.334-.11-.335-.108-.335-.106-.336-.1-.336-.1-.337-.1-.338-.1-.338-.1-.338-.1-.34-.093-.34-.092-.34-.09-.341-.088-.341-.086-.342-.084-.342-.082-.343-.081-.343-.079-.343-.077-.344-.075-.344-.073-.345-.071-.345-.07-.345-.068-.345-.066-.346-.064-.346-.062-.346-.061L77,165.605l-.347-.057-.348-.055-.348-.053-.348-.052-.348-.049-.349-.048-.349-.046-.349-.044-.349-.042-.349-.04-.35-.038-.35-.036-.35-.035-.35-.033-.35-.031-.351-.029-.35-.027-.351-.025-.351-.023-.351-.022-.351-.02-.351-.018-.351-.016-.351-.014-.351-.012-.352-.01-.351-.008-.352-.007-.352,0-.351,0h-.478Z" fill="url(#linear-gradient)"/>

    <path class='pcolor' id="Trazado_826" data-name="Trazado 826" d="M-1629-843.791l.671-1.536v-23.282l2.636-9.839h15.607l-8.132-8.132,9.751,2.219,5.36,5.36-2.063.553h18.07l30-8.038,7.312,7.312,4.586,1.162,20.967,36.317c-.034.112-.069.224-.1.337s-.071.223-.106.335l-.108.335q-.054.167-.11.335l-.111.334-.113.333c-.038.111-.077.221-.115.332s-.077.221-.116.332-.078.221-.118.331-.08.221-.121.331l-.121.329-.124.329c-.041.11-.083.22-.125.328s-.085.22-.127.328-.086.218-.129.327-.086.218-.131.327l-.132.327c-.044.108-.089.217-.134.325s-.09.217-.136.325-.091.216-.138.323-.092.216-.139.323-.094.215-.141.322-.094.215-.142.322-.1.214-.145.32l-.146.32q-.073.159-.148.319t-.149.319l-.151.318c-.051.106-.1.211-.153.317l-.154.317-.157.315-.157.314-.16.314-.161.312c-.054.1-.108.208-.163.311s-.109.208-.165.311-.11.207-.166.31l-.168.31-.169.308-.171.308-.173.307-.175.305-.176.305c-.059.1-.117.2-.176.3l-.18.3q-.089.151-.181.3l-.182.3-.185.3c-.061.1-.123.2-.185.3s-.124.2-.187.3-.125.2-.189.3-.126.2-.19.3l-.192.3c-.065.1-.129.2-.194.293s-.13.2-.2.292-.13.2-.2.292-.131.194-.2.29-.132.194-.2.291l-.2.288-.2.288-.2.286-.206.285-.207.284-.209.283-.211.282c-.07.094-.141.188-.212.282s-.142.186-.214.279-.142.186-.214.279l-.216.277-.218.276-.22.275-.22.274-.222.273-.223.272-.225.27-.227.27-.228.268-.229.266-.23.266-.232.264-.234.264-.234.262-.237.26-.238.259c-.08.086-.159.173-.24.258l-.24.257-.242.256-.243.255-.244.253-.247.251-.247.25-.248.249-.25.248-.251.246-.253.245c-.084.082-.168.163-.253.244l-.256.242-.257.241-.257.239-.259.238c-.086.08-.173.158-.26.238l-.261.235c-.087.078-.175.157-.263.234s-.176.156-.264.233l-.265.231-.267.229-.267.229-.269.227-.269.226-.272.224-.272.222-.274.221-.275.22-.275.218-.277.218-.278.214c-.093.072-.186.143-.28.214l-.28.212c-.094.07-.187.141-.282.211l-.283.21-.284.208-.284.206-.285.205-.288.2c-.1.068-.192.135-.288.2l-.289.2-.291.2-.292.2-.292.2-.292.193-.294.193-.3.191-.3.19-.3.187-.3.186-.3.185-.3.183c-.1.06-.2.122-.3.181l-.3.18c-.1.06-.2.12-.3.178l-.3.177-.305.175-.306.174-.307.171-.308.17-.31.168-.31.167-.311.166-.311.164-.312.161-.313.16-.314.159-.315.156-.316.156-.317.153-.317.152-.319.15-.319.148-.32.147-.32.145-.321.144-.322.141-.322.14-.324.138-.324.137-.325.135-.326.133-.327.13-.327.13-.328.128-.328.126-.329.124-.33.122-.329.121-.332.119-.331.117-.332.116-.333.113-.333.112-.335.111-.335.108-.335.107-.336.1-.337.1-.337.1-.338.1-.338.1-.338.1-.339.094-.339.093-.34.09-.34.089-.341.086-.341.085-.342.083-.342.082-.343.079-.343.077-.344.076-.344.074-.344.072-.345.07-.346.068-.346.067-.346.065-.346.063-.346.061-.347.059-.346.058h0l-.347.056-.347.054-.348.052-.347.049-.349.049-.348.046-.349.045-.349.042-.349.041-.35.04-.213.022Zm23.024-44.727,8.977-10.775,5.4,9.348v9.724Zm18.929.954,4.138-11.729,9.96,9.96-7.933,7.934Z" transform="translate(1653.613 1091.958)" fill="#800034"/>

    <path class='tcolor' id="Trazado_825" data-name="Trazado 825" d="M-1472.371,347.22s11.01,1.208,13.5.084c0,0-14.116.108-26.849-12.036,0,0-7.754-15.941,0-35.6,0,0,3.88-3.943,8.254-4.016,0,0,10.691,4.016,14.987,4.016,0,0-9.45-4.184-12.459-7.193a40.778,40.778,0,0,1,21.218-12.713s-2.626,7.915,2.294,13.971c0,0-4.144-13.894,7.24-16.58,0,0,10.366,1.546,7.05,16.782,0,0,5.637-6.065,2.656-14.065a35.956,35.956,0,0,1,20.661,12.7,41.676,41.676,0,0,1-12.518,7.022s11.6-1.6,15.141-3.918c0,0,8.012.656,9.275,5.37l1.264,4.713a47.356,47.356,0,0,1-2.03,29.537s-12.045,11.558-27.163,12c0,0,7.85,1.382,13.684-.1a39.137,39.137,0,0,1-28.055,11.55h-.17A38.859,38.859,0,0,1-1472.371,347.22Zm27.846-8.653a15.488,15.488,0,0,1,8.635,2.786,13.71,13.71,0,0,0,6.223,1.425,20.616,20.616,0,0,0,7.108-1.534s10.441-3.571,15.331-8.348c0,0,7.35-17.5,0-30.233,0,0-37.728,18.347-74.08-.3,0,0-6.913,18.347,0,30.322,0,0,5.452,6.3,18.718,9.518,0,0,7.517,1.45,9.991-.855,0,0,4.59-2.793,7.809-2.793C-1444.7,338.561-1444.613,338.563-1444.525,338.567Zm-15.158,1,7.078-26.3,3.99.066-6.943,26.246Zm-13.622-4.642,6.458-23.9s9.167,1.838,10.821,1.664l-6.908,26.494A44.316,44.316,0,0,1-1473.305,334.923Z" transform="translate(1510.333 -87.1)" fill="#fff"/>
  </g>
</svg>
