<svg xmlns="http://www.w3.org/2000/svg" width="126.236" height="126.234" viewBox="0 0 126.236 126.234">
  <path class='pcolor' id="git" d="M124.737,58.378,69.621,3.264a8.131,8.131,0,0,0-11.5,0L46.68,14.71,61.2,29.228A9.654,9.654,0,0,1,73.424,41.535L87.416,55.528a9.661,9.661,0,1,1-5.794,5.453L68.574,47.933l0,34.341a9.655,9.655,0,1,1-7.953-.282V47.333a9.68,9.68,0,0,1-5.25-12.687L41.056,20.333,3.264,58.123a8.133,8.133,0,0,0,0,11.5l55.117,55.114a8.133,8.133,0,0,0,11.5,0l54.858-54.858a8.135,8.135,0,0,0,0-11.5Z" transform="translate(-0.883 -0.883)" fill="#f34f29"/>
</svg>
