<svg xmlns="http://www.w3.org/2000/svg" width="120.777" height="117.794" viewBox="0 0 120.777 117.794">
  <g id="github" transform="translate(-3.612 -5.103)">
    <path class='pcolor' id="Trazado_74" data-name="Trazado 74" d="M64,5.1A60.4,60.4,0,0,0,44.909,122.794c3.017.56,4.125-1.31,4.125-2.9,0-1.44-.056-6.2-.082-11.243-16.8,3.653-20.345-7.125-20.345-7.125-2.747-6.98-6.7-8.836-6.7-8.836-5.48-3.748.413-3.67.413-3.67,6.063.425,9.257,6.223,9.257,6.223,5.386,9.23,14.127,6.562,17.573,5.02.542-3.9,2.107-6.568,3.834-8.076-13.413-1.525-27.514-6.7-27.514-29.843a23.376,23.376,0,0,1,6.223-16.21c-.628-1.52-2.695-7.662.584-15.98,0,0,5.07-1.623,16.61,6.19a57.234,57.234,0,0,1,30.245,0c11.526-7.813,16.59-6.19,16.59-6.19,3.287,8.317,1.22,14.46.593,15.98a23.329,23.329,0,0,1,6.215,16.21c0,23.194-14.127,28.3-27.574,29.8,2.167,1.874,4.1,5.55,4.1,11.183,0,8.08-.07,14.583-.07,16.572,0,1.607,1.088,3.49,4.148,2.9A60.4,60.4,0,0,0,64,5.1Z" fill="#181616" fill-rule="evenodd"/>
  </g>
</svg>
