<svg xmlns="http://www.w3.org/2000/svg" width="125.701" height="115.788" viewBox="0 0 125.701 115.788">
  <g id="gitlab" transform="translate(-1.149 -6.105)">
    <path class='pcolor' id="Trazado_76" data-name="Trazado 76" d="M126.615,72.31l-7.034-21.647L105.64,7.76a2.4,2.4,0,0,0-4.556,0l-13.94,42.9H40.856L26.916,7.76a2.4,2.4,0,0,0-4.557,0L8.42,50.664,1.385,72.31a4.792,4.792,0,0,0,1.74,5.358L64,121.894l60.874-44.227a4.793,4.793,0,0,0,1.74-5.357" fill="#fc6d26"/>
    <path class='pcolor' id="Trazado_77" data-name="Trazado 77" d="M64,121.894l23.144-71.23H40.856L64,121.893Z" fill="#e24329"/>
    <path class='scolor' id="Trazado_78" data-name="Trazado 78" d="M64,121.894,40.856,50.664H8.42L64,121.893Z" fill="#fc6d26"/>
    <path class='xcolor' id="Trazado_79" data-name="Trazado 79" d="M8.42,50.663,1.384,72.31a4.79,4.79,0,0,0,1.74,5.357L64,121.894,8.42,50.664Z" fill="#fca326"/>
    <path class='pcolor' id="Trazado_80" data-name="Trazado 80" d="M8.42,50.663H40.856L26.916,7.76a2.4,2.4,0,0,0-4.557,0L8.42,50.664Z" fill="#e24329"/>
    <path class='scolor' id="Trazado_81" data-name="Trazado 81" d="M64,121.894l23.144-71.23h32.437L64,121.893Z" fill="#fc6d26"/>
    <path class='xcolor' id="Trazado_82" data-name="Trazado 82" d="M119.58,50.663l7.035,21.647a4.79,4.79,0,0,1-1.74,5.357L64,121.894l55.58-71.23Z" fill="#fca326"/>
    <path class='pcolor' id="Trazado_83" data-name="Trazado 83" d="M119.58,50.663H87.145l13.94-42.9a2.4,2.4,0,0,1,4.557,0l13.94,42.9Z" fill="#e24329"/>
  </g>
</svg>
