<svg xmlns="http://www.w3.org/2000/svg" xmlns:xlink="http://www.w3.org/1999/xlink" width="121.655" height="121.678" viewBox="0 0 121.655 121.678">
  <defs>
    <linearGradient id="linear-gradient" x1="0.036" y1="0.939" x2="0.98" y2="0.046" gradientUnits="objectBoundingBox">
      <stop offset="0" stop-color="#fd5"/>
      <stop offset="0.5" stop-color="#ff543e"/>
      <stop offset="1" stop-color="#c837ab"/>
    </linearGradient>
  </defs>
  <g id="instagram" transform="translate(0.07 0.038)">
    <path id="Trazado_822" data-name="Trazado 822" d="M7.865,8.409C-1.667,18.311.284,28.829.284,60.783c0,26.535-4.63,53.137,19.6,59.4,7.566,1.946,74.608,1.946,82.164-.01,10.089-2.6,18.3-10.786,19.419-25.055.157-1.991.157-66.642-.005-68.674C120.27,11.245,110.914,2.486,98.586.712,95.761.3,95.195.181,80.7.156,29.281.181,18.01-2.109,7.865,8.409Z" transform="translate(0 0)" fill="url(#linear-gradient)"/>
    <path id="Trazado_823" data-name="Trazado 823" d="M47.94,3.174C29.588,3.174,12.16,1.541,5.5,18.625c-2.75,7.056-2.35,16.219-2.35,29.341C3.153,59.479,2.784,70.3,5.5,77.3,12.145,94.4,29.714,92.757,47.93,92.757c17.574,0,35.694,1.83,42.431-15.456,2.755-7.127,2.35-16.154,2.35-29.336,0-17.5.965-28.795-7.521-37.276C76.6,2.1,64.978,3.174,47.92,3.174Zm-4.013,8.072c38.282-.061,43.154-4.316,40.465,54.8-.955,20.91-16.877,18.615-36.447,18.615-35.684,0-36.71-1.021-36.71-36.72,0-36.113,2.83-36.68,32.692-36.71Zm27.92,7.435a5.373,5.373,0,1,0,5.373,5.373A5.373,5.373,0,0,0,71.847,18.68ZM47.94,24.963a23,23,0,1,0,22.992,23,23,23,0,0,0-22.992-23Zm0,8.072c19.737,0,19.763,29.861,0,29.861C28.208,62.9,28.177,33.035,47.94,33.035Z" transform="translate(12.986 12.848)" fill="#fff"/>
  </g>
</svg>
