<svg xmlns="http://www.w3.org/2000/svg" width="125.335" height="125.335" viewBox="0 0 125.335 125.335">
  <path class='pcolor' id="link" d="M106.97,18.364a62.653,62.653,0,1,0,0,88.605A62.619,62.619,0,0,0,106.97,18.364Zm-2.619,79.674a62.8,62.8,0,0,0-9.359-6.931A101.328,101.328,0,0,0,98.772,66.66h18.42a54.173,54.173,0,0,1-12.84,31.379ZM8.143,66.66h18.42a101.329,101.329,0,0,0,3.779,24.448,62.8,62.8,0,0,0-9.359,6.931A54.174,54.174,0,0,1,8.143,66.66ZM20.984,27.3a62.8,62.8,0,0,0,9.359,6.931,101.328,101.328,0,0,0-3.779,24.448H8.143A54.174,54.174,0,0,1,20.984,27.3Zm37.691,7.756a54.244,54.244,0,0,1-18.611-4.715c3.385-8.717,9.626-19.172,18.611-21.763Zm0,8V58.674H34.552a94.072,94.072,0,0,1,3.028-20.7A62.234,62.234,0,0,0,58.675,43.051Zm0,23.608V82.283a62.234,62.234,0,0,0-21.1,5.078,94.072,94.072,0,0,1-3.028-20.7Zm0,23.623v26.478C49.69,114.17,43.45,103.716,40.064,95A54.244,54.244,0,0,1,58.675,90.283Zm7.985,0A54.244,54.244,0,0,1,85.271,95c-3.385,8.717-9.626,19.172-18.611,21.763Zm0-8V66.66H90.783a94.071,94.071,0,0,1-3.028,20.7,62.234,62.234,0,0,0-21.1-5.078Zm0-23.608V43.051a62.234,62.234,0,0,0,21.1-5.078,94.071,94.071,0,0,1,3.028,20.7Zm0-23.623V8.573c8.985,2.591,15.226,13.046,18.611,21.763A54.249,54.249,0,0,1,66.66,35.051ZM84.594,12.559A54.428,54.428,0,0,1,98.747,21.6a54.877,54.877,0,0,1-6.423,4.875,60.112,60.112,0,0,0-7.73-13.913ZM33.011,26.472A54.9,54.9,0,0,1,26.588,21.6a54.428,54.428,0,0,1,14.153-9.038,60.132,60.132,0,0,0-7.73,13.913Zm0,72.39a60.117,60.117,0,0,0,7.73,13.913,54.428,54.428,0,0,1-14.153-9.038A54.876,54.876,0,0,1,33.011,98.862Zm59.313,0a54.9,54.9,0,0,1,6.423,4.875,54.428,54.428,0,0,1-14.153,9.038,60.109,60.109,0,0,0,7.73-13.913Zm6.448-40.187a101.326,101.326,0,0,0-3.779-24.448,62.815,62.815,0,0,0,9.359-6.931,54.174,54.174,0,0,1,12.84,31.379Z" transform="translate(0 0.001)"/>
</svg>
