<svg xmlns="http://www.w3.org/2000/svg" width="84.551" height="118.04" viewBox="0 0 84.551 118.04">
  <g id="notfound" transform="translate(-0.5)">
    <path id="Trazado_1015" data-name="Trazado 1015" d="M.5,0H85.051V118.04H.5Zm0,0" fill="#e04149"/>
    <path id="Trazado_1025" data-name="Trazado 1025" d="M.3-1003.171a1.808,1.808,0,0,1-1.806-1.807A1.807,1.807,0,0,1,.3-1006.784H58.6a1.807,1.807,0,0,1,1.806,1.806,1.808,1.808,0,0,1-1.806,1.807Zm0-7.86a1.807,1.807,0,0,1-1.806-1.806A1.806,1.806,0,0,1,.3-1014.644H58.6a1.806,1.806,0,0,1,1.806,1.807,1.807,1.807,0,0,1-1.806,1.806Zm0-7.859A1.808,1.808,0,0,1-1.5-1020.7,1.807,1.807,0,0,1,.3-1022.5H58.6a1.807,1.807,0,0,1,1.806,1.806,1.808,1.808,0,0,1-1.806,1.807Zm-5.9-11.993v-70.1H64.5v70.1Z" transform="translate(13.323 1108.207)" fill="#eaeaea"/>
    <path id="Trazado_1017" data-name="Trazado 1017" d="M122.37,103.163A26.856,26.856,0,0,1,95.55,130.05v7.684H71.782c3.016-14.976,7.937-39.286,8.387-40.6a18.671,18.671,0,0,1,9.85-10.927l1.1-.507v17.464a18.672,18.672,0,0,1,10.85-16.957l1.1-.507v17.464Zm0,0" transform="translate(-54.848 -65.942)" fill="#b75129"/>
    <path id="Trazado_1026" data-name="Trazado 1026" d="M.521-1091.185v-2.533a1.807,1.807,0,0,1,1.806-1.806,1.807,1.807,0,0,1,1.807,1.806v2.533a1.806,1.806,0,0,1-1.807,1.806A1.806,1.806,0,0,1,.521-1091.185Zm-6.116,0v-2.533a1.806,1.806,0,0,1,1.806-1.806,1.806,1.806,0,0,1,1.806,1.806v2.533a1.805,1.805,0,0,1-1.806,1.806A1.806,1.806,0,0,1-5.6-1091.185Zm25.763-.963a9.054,9.054,0,0,1-7.06-8.83H21.8a26.828,26.828,0,0,1-1.495,8.861Zm1.631-8.831h0Z" transform="translate(45.724 1138.202)" fill="#353c44"/>
  </g>
</svg>
