<svg xmlns="http://www.w3.org/2000/svg" width="125" height="124.992" viewBox="0 0 125 124.992">
  <g id="close" transform="translate(0 -0.016)">
    <g id="Grupo_4" data-name="Grupo 4" transform="translate(0 0.016)">
      <path class='pcolor' id="Trazado_820" data-name="Trazado 820" d="M76.267,62.512,123,15.774a6.849,6.849,0,0,0,0-9.668l-4.1-4.095a6.854,6.854,0,0,0-9.67,0L62.5,48.747,15.764,2.012a6.85,6.85,0,0,0-9.667,0L2,6.106a6.842,6.842,0,0,0,0,9.668L48.737,62.512,2,109.248a6.856,6.856,0,0,0,0,9.67l4.1,4.095a6.85,6.85,0,0,0,9.667,0L62.5,76.276l46.736,46.736a6.783,6.783,0,0,0,4.833,2h0a6.784,6.784,0,0,0,4.834-2l4.1-4.095a6.855,6.855,0,0,0,0-9.669Z" transform="translate(0 -0.016)"/>
    </g>
  </g>
</svg>
