<svg width="75" height="75" viewBox="0 0 80 80" fill="none" xmlns="http://www.w3.org/2000/svg">
            <path class='pcolor'
              d="M80 40C80 17.9086 62.0914 0 40 0C17.9086 0 0 17.9086 0 40C0 62.0914 17.9086 80 40 80C62.0914 80 80 62.0914 80 40Z"
              fill="#7289DA"
            />
            <path class='tcolor'
              d="M54.1909 61.3959L50.9019 57.4799C54.5357 56.6297 57.7201 54.451 59.8289 51.3719C51.6849 59.0459 29.4439 59.3599 20.8289 51.3719C20.8289 51.3719 23.0219 55.4439 29.5999 57.4799L25.9999 61.3959C15.0359 61.2389 10.8069 53.8779 10.8069 53.8779C10.9453 43.6943 13.408 33.6769 18.0069 24.5899C25.3729 19.4209 32.1069 19.4209 32.1069 19.4209L32.5769 20.0469C23.4929 22.5529 19.5769 26.6249 19.5769 26.6249C30.2269 19.4249 52.1539 20.0469 60.7689 26.6249C60.9259 26.4679 55.6009 22.2399 47.2999 20.0469L48.0829 19.4209C48.0829 19.4209 54.8179 19.4209 62.1829 24.5899C66.7818 33.6769 69.2444 43.6943 69.3829 53.8779C69.3829 53.8779 65.1549 61.2389 54.1909 61.3959Z"
              fill="white"
            />
            <path class='pcolor'
              d="M31 47C34.3137 47 37 44.7614 37 42C37 39.2386 34.3137 37 31 37C27.6863 37 25 39.2386 25 42C25 44.7614 27.6863 47 31 47Z"
              fill="#7289DA"
            />
            <path class='pcolor'
              d="M49.5 47C52.5376 47 55 44.7614 55 42C55 39.2386 52.5376 37 49.5 37C46.4624 37 44 39.2386 44 42C44 44.7614 46.4624 47 49.5 47Z"
              fill="#7289DA"
            />
          </svg>
