<?xml version="1.0" encoding="UTF-8" standalone="no"?>
<svg
   xmlns:dc="http://purl.org/dc/elements/1.1/"
   xmlns:cc="http://creativecommons.org/ns#"
   xmlns:rdf="http://www.w3.org/1999/02/22-rdf-syntax-ns#"
   xmlns:svg="http://www.w3.org/2000/svg"
   xmlns="http://www.w3.org/2000/svg"
   xmlns:xlink="http://www.w3.org/1999/xlink"
   xmlns:sodipodi="http://sodipodi.sourceforge.net/DTD/sodipodi-0.dtd"
   xmlns:inkscape="http://www.inkscape.org/namespaces/inkscape"
   sodipodi:docname="FaztCommunity.svg"
   inkscape:version="1.0 (6e3e5246a0, 2020-05-07)"
   inkscape:export-ydpi="96"
   inkscape:export-xdpi="96"
   inkscape:export-filename="/home/frayni/Downloads/Background.png"
   id="svg8"
   version="1.1"
   viewBox="0 0 132.29166 132.29167"
   height="500"
   width="500">
  <defs
     id="defs2">
    <linearGradient
       gradientTransform="matrix(0.0264583,0,0,0.02645833,3.8866839,289.14182)"
       gradientUnits="userSpaceOnUse"
       y2="297"
       x2="4999.9995"
       y1="-4702.9995"
       x1="0.00010317384"
       id="linearGradient845"
       xlink:href="#linearGradient843"
       inkscape:collect="always" />
    <linearGradient
       id="linearGradient843"
       inkscape:collect="always">
      <stop
         id="stop839"
         offset="0"
         style="stop-color:#f50022;stop-opacity:1" />
      <stop
         id="stop841"
         offset="1"
         style="stop-color:#81004f;stop-opacity:1" />
    </linearGradient>
  </defs>
  <sodipodi:namedview
     inkscape:window-maximized="1"
     inkscape:window-y="27"
     inkscape:window-x="67"
     inkscape:window-height="713"
     inkscape:window-width="1299"
     units="px"
     showgrid="false"
     inkscape:document-rotation="0"
     inkscape:current-layer="layer1"
     inkscape:document-units="mm"
     inkscape:cy="250"
     inkscape:cx="250"
     inkscape:zoom="0.984"
     inkscape:pageshadow="2"
     inkscape:pageopacity="0.0"
     borderopacity="1.0"
     bordercolor="#666666"
     pagecolor="#ffffff"
     id="base" />
  <metadata
     id="metadata5">
    <rdf:RDF>
      <cc:Work
         rdf:about="">
        <dc:format>image/svg+xml</dc:format>
        <dc:type
           rdf:resource="http://purl.org/dc/dcmitype/StillImage" />
        <dc:title></dc:title>
      </cc:Work>
    </rdf:RDF>
  </metadata>
  <g
     transform="translate(0,-164.70833)"
     id="layer1"
     inkscape:groupmode="layer"
     inkscape:label="Layer 1">
    <g
       style="opacity:1"
       id="g1168"
       transform="translate(-3.8866236,-2.5666667e-4)">
      <path
         d="m 69.906944,164.70829 a 66.145827,66.145827 0 0 0 -0.35192,0.002 66.145827,66.145827 0 0 0 -0.35192,0.004 66.145827,66.145827 0 0 0 -0.3514,0.005 66.145827,66.145827 0 0 0 -0.35191,0.007 66.145827,66.145827 0 0 0 -0.3514,0.009 66.145827,66.145827 0 0 0 -0.35192,0.0109 66.145827,66.145827 0 0 0 -0.3514,0.0129 66.145827,66.145827 0 0 0 -0.3514,0.0145 66.145827,66.145827 0 0 0 -0.3514,0.0165 66.145827,66.145827 0 0 0 -0.3514,0.0186 66.145827,66.145827 0 0 0 -0.3514,0.0202 66.145827,66.145827 0 0 0 -0.35088,0.0222 66.145827,66.145827 0 0 0 -0.35088,0.0243 66.145827,66.145827 0 0 0 -0.35089,0.0258 66.145827,66.145827 0 0 0 -0.35088,0.0279 66.145827,66.145827 0 0 0 -0.35036,0.0295 66.145827,66.145827 0 0 0 -0.35037,0.0315 66.145827,66.145827 0 0 0 -0.35037,0.0336 66.145827,66.145827 0 0 0 -0.34985,0.0351 66.145827,66.145827 0 0 0 -0.34985,0.0367 66.145827,66.145827 0 0 0 -0.34933,0.0393 66.145827,66.145827 0 0 0 -0.34985,0.0408 66.145827,66.145827 0 0 0 -0.34882,0.0424 66.145827,66.145827 0 0 0 -0.34933,0.0444 66.145827,66.145827 0 0 0 -0.3483,0.0465 66.145827,66.145827 0 0 0 -0.34881,0.0481 66.145827,66.145827 0 0 0 -0.34778,0.0501 66.145827,66.145827 0 0 0 -0.34831,0.0522 66.145827,66.145827 0 0 0 -0.34726,0.0537 66.145827,66.145827 0 0 0 -0.34778,0.0558 66.145827,66.145827 0 0 0 -0.34675,0.0574 66.145827,66.145827 0 0 0 -0.34675,0.0594 66.145827,66.145827 0 0 0 -0.34675,0.061 66.145827,66.145827 0 0 0 -0.34571,0.063 66.145827,66.145827 0 0 0 -0.34572,0.0646 66.145827,66.145827 0 0 0 -0.34571,0.0667 66.145827,66.145827 0 0 0 -0.3452,0.0687 66.145827,66.145827 0 0 0 -0.34468,0.0703 66.145827,66.145827 0 0 0 -0.34417,0.0724 66.145827,66.145827 0 0 0 -0.34365,0.0739 66.145827,66.145827 0 0 0 -0.34365,0.076 66.145827,66.145827 0 0 0 -0.34313,0.0775 66.145827,66.145827 0 0 0 -0.34261,0.0796 66.145827,66.145827 0 0 0 -0.3421,0.0811 66.145827,66.145827 0 0 0 -0.3421,0.0832 66.145827,66.145827 0 0 0 -0.34106,0.0847 66.145827,66.145827 0 0 0 -0.34107,0.0868 66.145827,66.145827 0 0 0 -0.34055,0.0889 66.145827,66.145827 0 0 0 -0.34003,0.0904 66.145827,66.145827 0 0 0 -0.33951,0.092 66.145827,66.145827 0 0 0 -0.339,0.094 66.145827,66.145827 0 0 0 -0.33848,0.0956 66.145827,66.145827 0 0 0 -0.33796,0.0977 66.145827,66.145827 0 0 0 -0.33745,0.0992 66.145827,66.145827 0 0 0 -0.33693,0.10128 66.145827,66.145827 0 0 0 -0.33641,0.10284 66.145827,66.145827 0 0 0 -0.3359,0.1049 66.145827,66.145827 0 0 0 -0.33486,0.10645 66.145827,66.145827 0 0 0 -0.33487,0.10852 66.145827,66.145827 0 0 0 -0.33434,0.11007 66.145827,66.145827 0 0 0 -0.33332,0.11214 66.145827,66.145827 0 0 0 -0.33279,0.11369 66.145827,66.145827 0 0 0 -0.33228,0.11524 66.145827,66.145827 0 0 0 -0.33176,0.1173 66.145827,66.145827 0 0 0 -0.33125,0.11886 66.145827,66.145827 0 0 0 -0.33021,0.12041 66.145827,66.145827 0 0 0 -0.3297,0.12247 66.145827,66.145827 0 0 0 -0.32918,0.12454 66.145827,66.145827 0 0 0 -0.32866,0.12557 66.145827,66.145827 0 0 0 -0.32763,0.12816 66.145827,66.145827 0 0 0 -0.32711,0.12919 66.145827,66.145827 0 0 0 -0.3266,0.13126 66.145827,66.145827 0 0 0 -0.32555,0.13281 66.145827,66.145827 0 0 0 -0.32505,0.13487 66.145827,66.145827 0 0 0 -0.32401,0.13643 66.145827,66.145827 0 0 0 -0.32401,0.13798 66.145827,66.145827 0 0 0 -0.32246,0.13952 66.145827,66.145827 0 0 0 -0.32195,0.1416 66.145827,66.145827 0 0 0 -0.32143,0.14366 66.145827,66.145827 0 0 0 -0.32039,0.14469 66.145827,66.145827 0 0 0 -0.31988,0.14676 66.145827,66.145827 0 0 0 -0.31884,0.14831 66.145827,66.145827 0 0 0 -0.31833,0.14986 66.145827,66.145827 0 0 0 -0.31729,0.15193 66.145827,66.145827 0 0 0 -0.31678,0.15348 66.145827,66.145827 0 0 0 -0.31574,0.15503 66.145827,66.145827 0 0 0 -0.31471,0.15658 66.145827,66.145827 0 0 0 -0.31419,0.15865 66.145827,66.145827 0 0 0 -0.31316,0.16019 66.145827,66.145827 0 0 0 -0.31264,0.16175 66.145827,66.145827 0 0 0 -0.3111,0.1633 66.145827,66.145827 0 0 0 -0.31109,0.16536 66.145827,66.145827 0 0 0 -0.30954,0.1664 66.145827,66.145827 0 0 0 -0.30902,0.16847 66.145827,66.145827 0 0 0 -0.308,0.17001 66.145827,66.145827 0 0 0 -0.30695,0.17157 66.145827,66.145827 0 0 0 -0.30593,0.17363 66.145827,66.145827 0 0 0 -0.3054,0.17467 66.145827,66.145827 0 0 0 -0.30438,0.17673 66.145827,66.145827 0 0 0 -0.30334,0.17828 66.145827,66.145827 0 0 0 -0.30231,0.17984 66.145827,66.145827 0 0 0 -0.30127,0.18138 66.145827,66.145827 0 0 0 -0.30024,0.18294 66.145827,66.145827 0 0 0 -0.29973,0.18448 66.145827,66.145827 0 0 0 -0.29868,0.18604 66.145827,66.145827 0 0 0 -0.29714,0.18758 66.145827,66.145827 0 0 0 -0.29663,0.18966 66.145827,66.145827 0 0 0 -0.29559,0.19068 66.145827,66.145827 0 0 0 -0.29455,0.19275 66.145827,66.145827 0 0 0 -0.29301,0.19379 66.145827,66.145827 0 0 0 -0.29248,0.19585 66.145827,66.145827 0 0 0 -0.29146,0.19689 66.145827,66.145827 0 0 0 -0.29042,0.19896 66.145827,66.145827 0 0 0 -0.28887,0.19998 66.145827,66.145827 0 0 0 -0.28836,0.20206 66.145827,66.145827 0 0 0 -0.28732,0.20309 66.145827,66.145827 0 0 0 -0.28577,0.20464 66.145827,66.145827 0 0 0 -0.28474,0.2067 66.145827,66.145827 0 0 0 -0.28422,0.20774 66.145827,66.145827 0 0 0 -0.28267,0.20929 66.145827,66.145827 0 0 0 -0.28163,0.21084 66.145827,66.145827 0 0 0 -0.28009,0.21239 66.145827,66.145827 0 0 0 -0.27957,0.21394 66.145827,66.145827 0 0 0 -0.27802,0.21497 66.145827,66.145827 0 0 0 -0.27698,0.21705 66.145827,66.145827 0 0 0 -0.27596,0.21807 66.145827,66.145827 0 0 0 -0.27492,0.22014 66.145827,66.145827 0 0 0 -0.27336,0.22118 66.145827,66.145827 0 0 0 -0.27234,0.22221 66.145827,66.145827 0 0 0 -0.2713,0.22427 66.145827,66.145827 0 0 0 -0.26975,0.22583 66.145827,66.145827 0 0 0 -0.26872,0.22686 66.145827,66.145827 0 0 0 -0.26768,0.22841 66.145827,66.145827 0 0 0 -0.26665,0.22944 66.145827,66.145827 0 0 0 -0.2651,0.23151 66.145827,66.145827 0 0 0 -0.26355,0.23254 66.145827,66.145827 0 0 0 -0.26304,0.2341 66.145827,66.145827 0 0 0 -0.26096,0.23513 66.145827,66.145827 0 0 0 -0.26045,0.23719 66.145827,66.145827 0 0 0 -0.2589,0.23823 66.145827,66.145827 0 0 0 -0.25735,0.23926 66.145827,66.145827 0 0 0 -0.25631,0.24081 66.145827,66.145827 0 0 0 -0.25528,0.24237 66.145827,66.145827 0 0 0 -0.25374,0.24391 66.145827,66.145827 0 0 0 -0.25218,0.24495 66.145827,66.145827 0 0 0 -0.25114,0.24597 66.145827,66.145827 0 0 0 -0.25012,0.24805 66.145827,66.145827 0 0 0 -0.24856,0.24908 66.145827,66.145827 0 0 0 -0.24701,0.25012 66.145827,66.145827 0 0 0 -0.24598,0.25166 66.145827,66.145827 0 0 0 -0.24443,0.2527 66.145827,66.145827 0 0 0 -0.24288,0.25425 66.145827,66.145827 0 0 0 -0.24185,0.25579 66.145827,66.145827 0 0 0 -0.24081,0.25684 66.145827,66.145827 0 0 0 -0.23875,0.25786 66.145827,66.145827 0 0 0 -0.23771,0.25942 66.145827,66.145827 0 0 0 -0.23668,0.26045 66.145827,66.145827 0 0 0 -0.23461,0.262 66.145827,66.145827 0 0 0 -0.23357,0.26303 66.145827,66.145827 0 0 0 -0.23203,0.26407 66.145827,66.145827 0 0 0 -0.231,0.26561 66.145827,66.145827 0 0 0 -0.22892,0.26665 66.145827,66.145827 0 0 0 -0.2279,0.2682 66.145827,66.145827 0 0 0 -0.22685,0.26924 66.145827,66.145827 0 0 0 -0.2248,0.27027 66.145827,66.145827 0 0 0 -0.22376,0.27181 66.145827,66.145827 0 0 0 -0.2222,0.27285 66.145827,66.145827 0 0 0 -0.22066,0.27389 66.145827,66.145827 0 0 0 -0.21911,0.27492 66.145827,66.145827 0 0 0 -0.21756,0.27647 66.145827,66.145827 0 0 0 -0.21652,0.2775 66.145827,66.145827 0 0 0 -0.21446,0.27854 66.145827,66.145827 0 0 0 -0.21342,0.27957 66.145827,66.145827 0 0 0 -0.21188,0.28112 66.145827,66.145827 0 0 0 -0.21032,0.28163 66.145827,66.145827 0 0 0 -0.20877,0.28319 66.145827,66.145827 0 0 0 -0.20723,0.28422 66.145827,66.145827 0 0 0 -0.20618,0.28525 66.145827,66.145827 0 0 0 -0.20413,0.28629 66.145827,66.145827 0 0 0 -0.20257,0.28784 66.145827,66.145827 0 0 0 -0.20154,0.28835 66.145827,66.145827 0 0 0 -0.19947,0.28991 66.145827,66.145827 0 0 0 -0.19792,0.29042 66.145827,66.145827 0 0 0 -0.19689,0.29197 66.145827,66.145827 0 0 0 -0.19482,0.29249 66.145827,66.145827 0 0 0 -0.19378,0.29404 66.145827,66.145827 0 0 0 -0.19172,0.29456 66.145827,66.145827 0 0 0 -0.19017,0.2961 66.145827,66.145827 0 0 0 -0.18914,0.29662 66.145827,66.145827 0 0 0 -0.18707,0.29817 66.145827,66.145827 0 0 0 -0.18551,0.2987 66.145827,66.145827 0 0 0 -0.18397,0.29972 66.145827,66.145827 0 0 0 -0.18242,0.30076 66.145827,66.145827 0 0 0 -0.18087,0.30178 66.145827,66.145827 0 0 0 -0.17931,0.30283 66.145827,66.145827 0 0 0 -0.17725,0.30334 66.145827,66.145827 0 0 0 -0.17622,0.30489 66.145827,66.145827 0 0 0 -0.17415,0.30541 66.145827,66.145827 0 0 0 -0.17312,0.30644 66.145827,66.145827 0 0 0 -0.17105,0.30747 66.145827,66.145827 0 0 0 -0.16898,0.30851 66.145827,66.145827 0 0 0 -0.16795,0.30903 66.145827,66.145827 0 0 0 -0.16639,0.31006 66.145827,66.145827 0 0 0 -0.16433,0.31109 66.145827,66.145827 0 0 0 -0.16279,0.31161 66.145827,66.145827 0 0 0 -0.16123,0.31264 66.145827,66.145827 0 0 0 -0.15968,0.31368 66.145827,66.145827 0 0 0 -0.15761,0.31419 66.145827,66.145827 0 0 0 -0.15658,0.31522 66.145827,66.145827 0 0 0 -0.15451,0.31627 66.145827,66.145827 0 0 0 -0.15245,0.31677 66.145827,66.145827 0 0 0 -0.15141,0.31781 66.145827,66.145827 0 0 0 -0.14934,0.31833 66.145827,66.145827 0 0 0 -0.1478001,0.31936 66.145827,66.145827 0 0 0 -0.14573,0.31987 66.145827,66.145827 0 0 0 -0.14469,0.32092 66.145827,66.145827 0 0 0 -0.14263,0.32142 66.145827,66.145827 0 0 0 -0.14107,0.32247 66.145827,66.145827 0 0 0 -0.13901,0.32297 66.145827,66.145827 0 0 0 -0.13746,0.3235 66.145827,66.145827 0 0 0 -0.13591,0.32452 66.145827,66.145827 0 0 0 -0.13384,0.32557 66.145827,66.145827 0 0 0 -0.13229,0.32607 66.145827,66.145827 0 0 0 -0.13075,0.3266 66.145827,66.145827 0 0 0 -0.12867,0.32711 66.145827,66.145827 0 0 0 -0.12712,0.32815 66.145827,66.145827 0 0 0 -0.12506,0.32866 66.145827,66.145827 0 0 0 -0.12403,0.32918 66.145827,66.145827 0 0 0 -0.12143,0.33021 66.145827,66.145827 0 0 0 -0.12041,0.33073 66.145827,66.145827 0 0 0 -0.11834,0.33125 66.145827,66.145827 0 0 0 -0.11627,0.33176 66.145827,66.145827 0 0 0 -0.11472,0.33279 66.145827,66.145827 0 0 0 -0.11317,0.3328 66.145827,66.145827 0 0 0 -0.11111,0.33383 66.145827,66.145827 0 0 0 -0.10955,0.33435 66.145827,66.145827 0 0 0 -0.10801,0.33486 66.145827,66.145827 0 0 0 -0.10593,0.33538 66.145827,66.145827 0 0 0 -0.10387,0.33641 66.145827,66.145827 0 0 0 -0.10232,0.33642 66.145827,66.145827 0 0 0 -0.10077,0.33693 66.145827,66.145827 0 0 0 -0.0987,0.33796 66.145827,66.145827 0 0 0 -0.0966,0.33796 66.145827,66.145827 0 0 0 -0.0951,0.33848 66.145827,66.145827 0 0 0 -0.0935,0.33952 66.145827,66.145827 0 0 0 -0.0915,0.33951 66.145827,66.145827 0 0 0 -0.0899,0.34003 66.145827,66.145827 0 0 0 -0.0879,0.34055 66.145827,66.145827 0 0 0 -0.0863,0.34107 66.145827,66.145827 0 0 0 -0.0842,0.34158 66.145827,66.145827 0 0 0 -0.0822,0.3421 66.145827,66.145827 0 0 0 -0.0811,0.34261 66.145827,66.145827 0 0 0 -0.0786,0.34261 66.145827,66.145827 0 0 0 -0.077,0.34314 66.145827,66.145827 0 0 0 -0.0754,0.34365 66.145827,66.145827 0 0 0 -0.0734,0.34416 66.145827,66.145827 0 0 0 -0.0713,0.34468 66.145827,66.145827 0 0 0 -0.0698,0.34468 66.145827,66.145827 0 0 0 -0.0677,0.3452 66.145827,66.145827 0 0 0 -0.0661,0.3452 66.145827,66.145827 0 0 0 -0.0641,0.34623 66.145827,66.145827 0 0 0 -0.0625,0.34623 66.145827,66.145827 0 0 0 -0.0605,0.34624 66.145827,66.145827 0 0 0 -0.0584,0.34675 66.145827,66.145827 0 0 0 -0.0568,0.34726 66.145827,66.145827 0 0 0 -0.0553,0.34778 66.145827,66.145827 0 0 0 -0.0527,0.34779 66.145827,66.145827 0 0 0 -0.0517,0.34778 66.145827,66.145827 0 0 0 -0.0491,0.3483 66.145827,66.145827 0 0 0 -0.0476,0.34881 66.145827,66.145827 0 0 0 -0.046,0.34882 66.145827,66.145827 0 0 0 -0.0439,0.34881 66.145827,66.145827 0 0 0 -0.0419,0.34934 66.145827,66.145827 0 0 0 -0.0403,0.34933 66.145827,66.145827 0 0 0 -0.0382,0.34985 66.145827,66.145827 0 0 0 -0.0362,0.34985 66.145827,66.145827 0 0 0 -0.0346,0.34985 66.145827,66.145827 0 0 0 -0.0326,0.35036 66.145827,66.145827 0 0 0 -0.031,0.35037 66.145827,66.145827 0 0 0 -0.0289,0.35088 66.145827,66.145827 0 0 0 -0.0269,0.35037 66.145827,66.145827 0 0 0 -0.0253,0.35088 66.145827,66.145827 0 0 0 -0.0233,0.3514 66.145827,66.145827 0 0 0 -0.0217,0.35089 66.145827,66.145827 0 0 0 -0.0196,0.3514 66.145827,66.145827 0 0 0 -0.0176,0.35139 66.145827,66.145827 0 0 0 -0.016,0.35141 66.145827,66.145827 0 0 0 -0.0139,0.35139 66.145827,66.145827 0 0 0 -0.0124,0.35141 66.145827,66.145827 0 0 0 -0.0103,0.35191 66.145827,66.145827 0 0 0 -0.008,0.3514 66.145827,66.145827 0 0 0 -0.007,0.35192 66.145827,66.145827 0 0 0 -0.005,0.35191 66.145827,66.145827 0 0 0 -0.003,0.3514 66.145827,66.145827 0 0 0 -10e-4,0.35192 v 0.12557 a 66.145827,66.145827 0 0 0 0.002,0.35192 66.145827,66.145827 0 0 0 0.004,0.35192 66.145827,66.145827 0 0 0 0.005,0.3514 66.145827,66.145827 0 0 0 0.007,0.35191 66.145827,66.145827 0 0 0 0.009,0.3514 66.145827,66.145827 0 0 0 0.0108,0.35192 66.145827,66.145827 0 0 0 0.0129,0.3514 66.145827,66.145827 0 0 0 0.0145,0.3514 66.145827,66.145827 0 0 0 0.0165,0.3514 66.145827,66.145827 0 0 0 0.0186,0.3514 66.145827,66.145827 0 0 0 0.0202,0.3514 66.145827,66.145827 0 0 0 0.0222,0.35088 66.145827,66.145827 0 0 0 0.0243,0.35088 66.145827,66.145827 0 0 0 0.0258,0.35089 66.145827,66.145827 0 0 0 0.0279,0.35088 66.145827,66.145827 0 0 0 0.0294,0.35036 66.145827,66.145827 0 0 0 0.0315,0.35037 66.145827,66.145827 0 0 0 0.0336,0.35037 66.145827,66.145827 0 0 0 0.0351,0.34985 66.145827,66.145827 0 0 0 0.0367,0.34985 66.145827,66.145827 0 0 0 0.0393,0.34933 66.145827,66.145827 0 0 0 0.0408,0.34985 66.145827,66.145827 0 0 0 0.0424,0.34882 66.145827,66.145827 0 0 0 0.0444,0.34933 66.145827,66.145827 0 0 0 0.0465,0.3483 66.145827,66.145827 0 0 0 0.0481,0.34881 66.145827,66.145827 0 0 0 0.0501,0.34778 66.145827,66.145827 0 0 0 0.0522,0.34831 66.145827,66.145827 0 0 0 0.0537,0.34726 66.145827,66.145827 0 0 0 0.0558,0.34778 66.145827,66.145827 0 0 0 0.0574,0.34675 66.145827,66.145827 0 0 0 0.0594,0.34675 66.145827,66.145827 0 0 0 0.061,0.34675 66.145827,66.145827 0 0 0 0.063,0.34571 66.145827,66.145827 0 0 0 0.0646,0.34572 66.145827,66.145827 0 0 0 0.0667,0.34571 66.145827,66.145827 0 0 0 0.0687,0.3452 66.145827,66.145827 0 0 0 0.0703,0.34468 66.145827,66.145827 0 0 0 0.0724,0.34417 66.145827,66.145827 0 0 0 0.0739,0.34365 66.145827,66.145827 0 0 0 0.076,0.34365 66.145827,66.145827 0 0 0 0.0775,0.34313 66.145827,66.145827 0 0 0 0.0796,0.34261 66.145827,66.145827 0 0 0 0.0811,0.3421 66.145827,66.145827 0 0 0 0.0832,0.3421 66.145827,66.145827 0 0 0 0.0847,0.34106 66.145827,66.145827 0 0 0 0.0868,0.34107 66.145827,66.145827 0 0 0 0.0889,0.34055 66.145827,66.145827 0 0 0 0.0904,0.34003 66.145827,66.145827 0 0 0 0.092,0.33951 66.145827,66.145827 0 0 0 0.094,0.339 66.145827,66.145827 0 0 0 0.0956,0.33848 66.145827,66.145827 0 0 0 0.0977,0.33796 66.145827,66.145827 0 0 0 0.0992,0.33745 66.145827,66.145827 0 0 0 0.10128,0.33693 66.145827,66.145827 0 0 0 0.10284,0.33641 66.145827,66.145827 0 0 0 0.1049,0.3359 66.145827,66.145827 0 0 0 0.10645,0.33486 66.145827,66.145827 0 0 0 0.10852,0.33487 66.145827,66.145827 0 0 0 0.11007,0.33434 66.145827,66.145827 0 0 0 0.11214,0.33332 66.145827,66.145827 0 0 0 0.11317,0.33279 66.145827,66.145827 0 0 0 0.11576,0.33228 66.145827,66.145827 0 0 0 0.1173,0.33176 66.145827,66.145827 0 0 0 0.11886,0.33125 66.145827,66.145827 0 0 0 0.12041,0.33021 66.145827,66.145827 0 0 0 0.12247,0.3297 66.145827,66.145827 0 0 0 0.12454,0.32918 66.145827,66.145827 0 0 0 0.12557,0.32866 66.145827,66.145827 0 0 0 0.12816,0.32763 66.145827,66.145827 0 0 0 0.12919,0.32711 66.145827,66.145827 0 0 0 0.13126,0.3266 66.145827,66.145827 0 0 0 0.13281,0.32555 66.145827,66.145827 0 0 0 0.13487,0.32505 66.145827,66.145827 0 0 0 0.13643,0.32401 66.145827,66.145827 0 0 0 0.13798,0.32401 66.145827,66.145827 0 0 0 0.13952,0.32246 66.145827,66.145827 0 0 0 0.1416,0.32195 66.145827,66.145827 0 0 0 0.14366,0.32143 66.145827,66.145827 0 0 0 0.14469,0.32039 66.145827,66.145827 0 0 0 0.14676,0.31988 66.145827,66.145827 0 0 0 0.1483101,0.31884 66.145827,66.145827 0 0 0 0.14986,0.31833 66.145827,66.145827 0 0 0 0.15193,0.31729 66.145827,66.145827 0 0 0 0.15348,0.31678 66.145827,66.145827 0 0 0 0.15503,0.31574 66.145827,66.145827 0 0 0 0.15658,0.31471 66.145827,66.145827 0 0 0 0.15865,0.31419 66.145827,66.145827 0 0 0 0.16019,0.31316 66.145827,66.145827 0 0 0 0.16175,0.31264 66.145827,66.145827 0 0 0 0.1633,0.3111 66.145827,66.145827 0 0 0 0.16536,0.31109 66.145827,66.145827 0 0 0 0.1664,0.30954 66.145827,66.145827 0 0 0 0.16847,0.30902 66.145827,66.145827 0 0 0 0.17001,0.308 66.145827,66.145827 0 0 0 0.17157,0.30695 66.145827,66.145827 0 0 0 0.17363,0.30593 66.145827,66.145827 0 0 0 0.17467,0.3054 66.145827,66.145827 0 0 0 0.17673,0.30438 66.145827,66.145827 0 0 0 0.17828,0.30334 66.145827,66.145827 0 0 0 0.17984,0.30231 66.145827,66.145827 0 0 0 0.18138,0.30127 66.145827,66.145827 0 0 0 0.18294,0.30024 66.145827,66.145827 0 0 0 0.18448,0.29973 66.145827,66.145827 0 0 0 0.18604,0.29868 66.145827,66.145827 0 0 0 0.18758,0.29714 66.145827,66.145827 0 0 0 0.18966,0.29663 66.145827,66.145827 0 0 0 0.19068,0.29559 66.145827,66.145827 0 0 0 0.19275,0.29455 66.145827,66.145827 0 0 0 0.19379,0.29301 66.145827,66.145827 0 0 0 0.19585,0.29248 66.145827,66.145827 0 0 0 0.19689,0.29146 66.145827,66.145827 0 0 0 0.19896,0.29042 66.145827,66.145827 0 0 0 0.19998,0.28887 66.145827,66.145827 0 0 0 0.20206,0.28836 66.145827,66.145827 0 0 0 0.20309,0.28732 66.145827,66.145827 0 0 0 0.20464,0.28577 66.145827,66.145827 0 0 0 0.2067,0.28474 66.145827,66.145827 0 0 0 0.20774,0.28422 66.145827,66.145827 0 0 0 0.20929,0.28267 66.145827,66.145827 0 0 0 0.21084,0.28163 66.145827,66.145827 0 0 0 0.21239,0.28009 66.145827,66.145827 0 0 0 0.21394,0.27957 66.145827,66.145827 0 0 0 0.21497,0.27802 66.145827,66.145827 0 0 0 0.21705,0.27698 66.145827,66.145827 0 0 0 0.21807,0.27596 66.145827,66.145827 0 0 0 0.22014,0.27491 66.145827,66.145827 0 0 0 0.22118,0.27337 66.145827,66.145827 0 0 0 0.22221,0.27234 66.145827,66.145827 0 0 0 0.22427,0.2713 66.145827,66.145827 0 0 0 0.22583,0.26975 66.145827,66.145827 0 0 0 0.22686,0.26872 66.145827,66.145827 0 0 0 0.22841,0.26768 66.145827,66.145827 0 0 0 0.22944,0.26665 66.145827,66.145827 0 0 0 0.23151,0.2651 66.145827,66.145827 0 0 0 0.23254,0.26355 66.145827,66.145827 0 0 0 0.2341,0.26304 66.145827,66.145827 0 0 0 0.23513,0.26096 66.145827,66.145827 0 0 0 0.23719,0.26045 66.145827,66.145827 0 0 0 0.23823,0.2589 66.145827,66.145827 0 0 0 0.23926,0.25735 66.145827,66.145827 0 0 0 0.24081,0.25631 66.145827,66.145827 0 0 0 0.24237,0.25528 66.145827,66.145827 0 0 0 0.24391,0.25373 66.145827,66.145827 0 0 0 0.24495,0.25219 66.145827,66.145827 0 0 0 0.24597,0.25114 66.145827,66.145827 0 0 0 0.24805,0.25012 66.145827,66.145827 0 0 0 0.24908,0.24856 66.145827,66.145827 0 0 0 0.25012,0.24702 66.145827,66.145827 0 0 0 0.25166,0.24597 66.145827,66.145827 0 0 0 0.2527,0.24443 66.145827,66.145827 0 0 0 0.25425,0.24288 66.145827,66.145827 0 0 0 0.25579,0.24185 66.145827,66.145827 0 0 0 0.25684,0.24081 66.145827,66.145827 0 0 0 0.25786,0.23875 66.145827,66.145827 0 0 0 0.25942,0.23771 66.145827,66.145827 0 0 0 0.26045,0.23668 66.145827,66.145827 0 0 0 0.262,0.23461 66.145827,66.145827 0 0 0 0.26303,0.23357 66.145827,66.145827 0 0 0 0.26407,0.23203 66.145827,66.145827 0 0 0 0.26561,0.23099 66.145827,66.145827 0 0 0 0.26665,0.22893 66.145827,66.145827 0 0 0 0.2682,0.2279 66.145827,66.145827 0 0 0 0.26924,0.22686 66.145827,66.145827 0 0 0 0.27027,0.22479 66.145827,66.145827 0 0 0 0.27181,0.22376 66.145827,66.145827 0 0 0 0.27285,0.2222 66.145827,66.145827 0 0 0 0.27389,0.22066 66.145827,66.145827 0 0 0 0.27492,0.21911 66.145827,66.145827 0 0 0 0.27647,0.21756 66.145827,66.145827 0 0 0 0.2775,0.21652 66.145827,66.145827 0 0 0 0.27854,0.21446 66.145827,66.145827 0 0 0 0.27957,0.21343 66.145827,66.145827 0 0 0 0.28112,0.21187 66.145827,66.145827 0 0 0 0.28163,0.21032 66.145827,66.145827 0 0 0 0.28319,0.20877 66.145827,66.145827 0 0 0 0.28422,0.20722 66.145827,66.145827 0 0 0 0.28525,0.20619 66.145827,66.145827 0 0 0 0.28629,0.20413 66.145827,66.145827 0 0 0 0.28784,0.20257 66.145827,66.145827 0 0 0 0.28835,0.20154 66.145827,66.145827 0 0 0 0.28991,0.19947 66.145827,66.145827 0 0 0 0.29042,0.19792 66.145827,66.145827 0 0 0 0.29197,0.19688 66.145827,66.145827 0 0 0 0.29249,0.19482 66.145827,66.145827 0 0 0 0.29404,0.19379 66.145827,66.145827 0 0 0 0.29456,0.19172 66.145827,66.145827 0 0 0 0.2961,0.19017 66.145827,66.145827 0 0 0 0.29662,0.18914 66.145827,66.145827 0 0 0 0.29766,0.18707 66.145827,66.145827 0 0 0 0.29921,0.18551 66.145827,66.145827 0 0 0 0.29972,0.18397 66.145827,66.145827 0 0 0 0.30076,0.18242 66.145827,66.145827 0 0 0 0.30178,0.18087 66.145827,66.145827 0 0 0 0.30283,0.17931 66.145827,66.145827 0 0 0 0.30334,0.17725 66.145827,66.145827 0 0 0 0.30489,0.17622 66.145827,66.145827 0 0 0 0.30541,0.17415 66.145827,66.145827 0 0 0 0.30644,0.17312 66.145827,66.145827 0 0 0 0.30747,0.17104 66.145827,66.145827 0 0 0 0.30851,0.16899 66.145827,66.145827 0 0 0 0.30903,0.16795 66.145827,66.145827 0 0 0 0.31006,0.16639 66.145827,66.145827 0 0 0 0.31109,0.16433 66.145827,66.145827 0 0 0 0.31161,0.16279 66.145827,66.145827 0 0 0 0.31264,0.16123 66.145827,66.145827 0 0 0 0.31368,0.15968 66.145827,66.145827 0 0 0 0.31419,0.15761 66.145827,66.145827 0 0 0 0.31522,0.15658 66.145827,66.145827 0 0 0 0.31627,0.15451 66.145827,66.145827 0 0 0 0.31677,0.15245 66.145827,66.145827 0 0 0 0.31781,0.15141 66.145827,66.145827 0 0 0 0.31833,0.14934 66.145827,66.145827 0 0 0 0.31936,0.1478 66.145827,66.145827 0 0 0 0.31987,0.14573 66.145827,66.145827 0 0 0 0.32092,0.14469 66.145827,66.145827 0 0 0 0.32142,0.14263 66.145827,66.145827 0 0 0 0.32247,0.14107 66.145827,66.145827 0 0 0 0.32297,0.13901 66.145827,66.145827 0 0 0 0.3235,0.13746 66.145827,66.145827 0 0 0 0.32452,0.13591 66.145827,66.145827 0 0 0 0.32557,0.13384 66.145827,66.145827 0 0 0 0.32607,0.13229 66.145827,66.145827 0 0 0 0.3266,0.13075 66.145827,66.145827 0 0 0 0.32711,0.12867 66.145827,66.145827 0 0 0 0.32815,0.12712 66.145827,66.145827 0 0 0 0.32866,0.12506 66.145827,66.145827 0 0 0 0.32918,0.12403 66.145827,66.145827 0 0 0 0.33021,0.12143 66.145827,66.145827 0 0 0 0.33073,0.12041 66.145827,66.145827 0 0 0 0.33125,0.11834 66.145827,66.145827 0 0 0 0.33176,0.11627 66.145827,66.145827 0 0 0 0.33279,0.11472 66.145827,66.145827 0 0 0 0.3328,0.11317 66.145827,66.145827 0 0 0 0.33383,0.11111 66.145827,66.145827 0 0 0 0.33435,0.10955 66.145827,66.145827 0 0 0 0.33486,0.10801 66.145827,66.145827 0 0 0 0.33538,0.10593 66.145827,66.145827 0 0 0 0.33641,0.10387 66.145827,66.145827 0 0 0 0.33642,0.10232 66.145827,66.145827 0 0 0 0.33693,0.10077 66.145827,66.145827 0 0 0 0.33796,0.0987 66.145827,66.145827 0 0 0 0.33796,0.0966 66.145827,66.145827 0 0 0 0.33848,0.0951 66.145827,66.145827 0 0 0 0.33952,0.0935 66.145827,66.145827 0 0 0 0.33951,0.0915 66.145827,66.145827 0 0 0 0.34003,0.0899 66.145827,66.145827 0 0 0 0.34055,0.0879 66.145827,66.145827 0 0 0 0.34107,0.0863 66.145827,66.145827 0 0 0 0.34158,0.0842 66.145827,66.145827 0 0 0 0.3421,0.0822 66.145827,66.145827 0 0 0 0.34261,0.0811 66.145827,66.145827 0 0 0 0.34261,0.0786 66.145827,66.145827 0 0 0 0.34314,0.077 66.145827,66.145827 0 0 0 0.34365,0.0754 66.145827,66.145827 0 0 0 0.34416,0.0734 66.145827,66.145827 0 0 0 0.34468,0.0713 66.145827,66.145827 0 0 0 0.34468,0.0698 66.145827,66.145827 0 0 0 0.3452,0.0677 66.145827,66.145827 0 0 0 0.3452,0.0661 66.145827,66.145827 0 0 0 0.34623,0.0641 66.145827,66.145827 0 0 0 0.34623,0.0625 66.145827,66.145827 0 0 0 0.34624,0.0605 66.145827,66.145827 0 0 0 0.34675,0.0584 66.145827,66.145827 0 0 0 0.34726,0.0568 66.145827,66.145827 0 0 0 0.34778,0.0553 66.145827,66.145827 0 0 0 0.34779,0.0527 66.145827,66.145827 0 0 0 0.34778,0.0517 66.145827,66.145827 0 0 0 0.3483,0.0491 66.145827,66.145827 0 0 0 0.34881,0.0476 66.145827,66.145827 0 0 0 0.34882,0.046 66.145827,66.145827 0 0 0 0.34881,0.0439 66.145827,66.145827 0 0 0 0.34934,0.0419 66.145827,66.145827 0 0 0 0.34933,0.0403 66.145827,66.145827 0 0 0 0.34985,0.0382 66.145827,66.145827 0 0 0 0.34985,0.0362 66.145827,66.145827 0 0 0 0.34985,0.0346 66.145827,66.145827 0 0 0 0.35036,0.0325 66.145827,66.145827 0 0 0 0.35037,0.031 66.145827,66.145827 0 0 0 0.35088,0.0289 66.145827,66.145827 0 0 0 0.35037,0.0269 66.145827,66.145827 0 0 0 0.35088,0.0253 66.145827,66.145827 0 0 0 0.3514,0.0233 66.145827,66.145827 0 0 0 0.35089,0.0217 66.145827,66.145827 0 0 0 0.3514,0.0196 66.145827,66.145827 0 0 0 0.35139,0.0176 66.145827,66.145827 0 0 0 0.35141,0.016 66.145827,66.145827 0 0 0 0.35139,0.0139 66.145827,66.145827 0 0 0 0.35141,0.0124 66.145827,66.145827 0 0 0 0.35191,0.0103 66.145827,66.145827 0 0 0 0.3514,0.008 66.145827,66.145827 0 0 0 0.35192,0.007 66.145827,66.145827 0 0 0 0.35191,0.005 66.145827,66.145827 0 0 0 0.3514,0.003 66.145827,66.145827 0 0 0 0.35192,9.9e-4 h 0.12557 a 66.145827,66.145827 0 0 0 0.35192,-0.002 66.145827,66.145827 0 0 0 0.35192,-0.004 66.145827,66.145827 0 0 0 0.3514,-0.005 66.145827,66.145827 0 0 0 0.35191,-0.007 66.145827,66.145827 0 0 0 0.3514,-0.009 66.145827,66.145827 0 0 0 0.35192,-0.0109 66.145827,66.145827 0 0 0 0.3514,-0.0129 66.145827,66.145827 0 0 0 0.3514,-0.0145 66.145827,66.145827 0 0 0 0.3514,-0.0165 66.145827,66.145827 0 0 0 0.3514,-0.0186 66.145827,66.145827 0 0 0 0.3514,-0.0202 66.145827,66.145827 0 0 0 0.35088,-0.0222 66.145827,66.145827 0 0 0 0.35088,-0.0243 66.145827,66.145827 0 0 0 0.35089,-0.0259 66.145827,66.145827 0 0 0 0.35088,-0.0279 66.145827,66.145827 0 0 0 0.35036,-0.0295 66.145827,66.145827 0 0 0 0.35037,-0.0315 66.145827,66.145827 0 0 0 0.35037,-0.0336 66.145827,66.145827 0 0 0 0.34985,-0.0351 66.145827,66.145827 0 0 0 0.34985,-0.0367 66.145827,66.145827 0 0 0 0.34933,-0.0393 66.145827,66.145827 0 0 0 0.34985,-0.0408 66.145827,66.145827 0 0 0 0.34882,-0.0424 66.145827,66.145827 0 0 0 0.34933,-0.0444 66.145827,66.145827 0 0 0 0.3483,-0.0465 66.145827,66.145827 0 0 0 0.34881,-0.0481 66.145827,66.145827 0 0 0 0.34778,-0.0501 66.145827,66.145827 0 0 0 0.34831,-0.0522 66.145827,66.145827 0 0 0 0.34726,-0.0537 66.145827,66.145827 0 0 0 0.34778,-0.0558 66.145827,66.145827 0 0 0 0.34675,-0.0574 66.145827,66.145827 0 0 0 0.34675,-0.0594 66.145827,66.145827 0 0 0 0.34675,-0.061 66.145827,66.145827 0 0 0 0.34571,-0.063 66.145827,66.145827 0 0 0 0.34572,-0.0646 66.145827,66.145827 0 0 0 0.34571,-0.0667 66.145827,66.145827 0 0 0 0.3452,-0.0687 66.145827,66.145827 0 0 0 0.34468,-0.0703 66.145827,66.145827 0 0 0 0.34417,-0.0723 66.145827,66.145827 0 0 0 0.34365,-0.0739 66.145827,66.145827 0 0 0 0.34365,-0.076 66.145827,66.145827 0 0 0 0.34313,-0.0775 66.145827,66.145827 0 0 0 0.34261,-0.0796 66.145827,66.145827 0 0 0 0.3421,-0.0811 66.145827,66.145827 0 0 0 0.3421,-0.0832 66.145827,66.145827 0 0 0 0.34106,-0.0847 66.145827,66.145827 0 0 0 0.34107,-0.0868 66.145827,66.145827 0 0 0 0.34055,-0.0889 66.145827,66.145827 0 0 0 0.34003,-0.0904 66.145827,66.145827 0 0 0 0.33951,-0.092 66.145827,66.145827 0 0 0 0.339,-0.094 66.145827,66.145827 0 0 0 0.33848,-0.0956 66.145827,66.145827 0 0 0 0.33796,-0.0977 66.145827,66.145827 0 0 0 0.33745,-0.0992 66.145827,66.145827 0 0 0 0.33693,-0.10129 66.145827,66.145827 0 0 0 0.33641,-0.10283 66.145827,66.145827 0 0 0 0.3359,-0.10491 66.145827,66.145827 0 0 0 0.33486,-0.10645 66.145827,66.145827 0 0 0 0.33487,-0.10852 66.145827,66.145827 0 0 0 0.33434,-0.11007 66.145827,66.145827 0 0 0 0.33332,-0.11214 66.145827,66.145827 0 0 0 0.33279,-0.11317 66.145827,66.145827 0 0 0 0.33228,-0.11576 66.145827,66.145827 0 0 0 0.33176,-0.1173 66.145827,66.145827 0 0 0 0.33125,-0.11886 66.145827,66.145827 0 0 0 0.33021,-0.1204 66.145827,66.145827 0 0 0 0.3297,-0.12248 66.145827,66.145827 0 0 0 0.32918,-0.12454 66.145827,66.145827 0 0 0 0.32866,-0.12557 66.145827,66.145827 0 0 0 0.32763,-0.12816 66.145827,66.145827 0 0 0 0.32711,-0.12919 66.145827,66.145827 0 0 0 0.3266,-0.13126 66.145827,66.145827 0 0 0 0.32555,-0.13281 66.145827,66.145827 0 0 0 0.32505,-0.13487 66.145827,66.145827 0 0 0 0.32401,-0.13643 66.145827,66.145827 0 0 0 0.32401,-0.13797 66.145827,66.145827 0 0 0 0.32246,-0.13953 66.145827,66.145827 0 0 0 0.32195,-0.14159 66.145827,66.145827 0 0 0 0.32143,-0.14366 66.145827,66.145827 0 0 0 0.32039,-0.1447 66.145827,66.145827 0 0 0 0.31988,-0.14676 66.145827,66.145827 0 0 0 0.31884,-0.14831 66.145827,66.145827 0 0 0 0.31833,-0.14986 66.145827,66.145827 0 0 0 0.31729,-0.15193 66.145827,66.145827 0 0 0 0.31678,-0.15348 66.145827,66.145827 0 0 0 0.31574,-0.15503 66.145827,66.145827 0 0 0 0.31471,-0.15658 66.145827,66.145827 0 0 0 0.31419,-0.15865 66.145827,66.145827 0 0 0 0.313156,-0.16019 66.145827,66.145827 0 0 0 0.31264,-0.16175 66.145827,66.145827 0 0 0 0.3111,-0.1633 66.145827,66.145827 0 0 0 0.31109,-0.16536 66.145827,66.145827 0 0 0 0.30954,-0.1664 66.145827,66.145827 0 0 0 0.30902,-0.16847 66.145827,66.145827 0 0 0 0.308,-0.17001 66.145827,66.145827 0 0 0 0.30695,-0.17157 66.145827,66.145827 0 0 0 0.30593,-0.17363 66.145827,66.145827 0 0 0 0.3054,-0.17467 66.145827,66.145827 0 0 0 0.30438,-0.17673 66.145827,66.145827 0 0 0 0.30334,-0.17828 66.145827,66.145827 0 0 0 0.30231,-0.17984 66.145827,66.145827 0 0 0 0.30127,-0.18138 66.145827,66.145827 0 0 0 0.30024,-0.18293 66.145827,66.145827 0 0 0 0.29973,-0.18449 66.145827,66.145827 0 0 0 0.29868,-0.18604 66.145827,66.145827 0 0 0 0.29714,-0.18758 66.145827,66.145827 0 0 0 0.29663,-0.18965 66.145827,66.145827 0 0 0 0.29559,-0.19069 66.145827,66.145827 0 0 0 0.29455,-0.19275 66.145827,66.145827 0 0 0 0.29301,-0.19379 66.145827,66.145827 0 0 0 0.29248,-0.19585 66.145827,66.145827 0 0 0 0.29146,-0.19689 66.145827,66.145827 0 0 0 0.29042,-0.19896 66.145827,66.145827 0 0 0 0.28887,-0.19998 66.145827,66.145827 0 0 0 0.28836,-0.20206 66.145827,66.145827 0 0 0 0.28732,-0.20309 66.145827,66.145827 0 0 0 0.28577,-0.20463 66.145827,66.145827 0 0 0 0.28474,-0.20671 66.145827,66.145827 0 0 0 0.28422,-0.20774 66.145827,66.145827 0 0 0 0.28267,-0.20929 66.145827,66.145827 0 0 0 0.28163,-0.21084 66.145827,66.145827 0 0 0 0.28009,-0.21239 66.145827,66.145827 0 0 0 0.27957,-0.21394 66.145827,66.145827 0 0 0 0.27802,-0.21497 66.145827,66.145827 0 0 0 0.27698,-0.21704 66.145827,66.145827 0 0 0 0.27596,-0.21808 66.145827,66.145827 0 0 0 0.27491,-0.22014 66.145827,66.145827 0 0 0 0.27337,-0.22118 66.145827,66.145827 0 0 0 0.27234,-0.2222 66.145827,66.145827 0 0 0 0.2713,-0.22428 66.145827,66.145827 0 0 0 0.26975,-0.22582 66.145827,66.145827 0 0 0 0.26872,-0.22687 66.145827,66.145827 0 0 0 0.26768,-0.22841 66.145827,66.145827 0 0 0 0.26665,-0.22944 66.145827,66.145827 0 0 0 0.2651,-0.23151 66.145827,66.145827 0 0 0 0.26355,-0.23254 66.145827,66.145827 0 0 0 0.26304,-0.2341 66.145827,66.145827 0 0 0 0.26096,-0.23512 66.145827,66.145827 0 0 0 0.26045,-0.2372 66.145827,66.145827 0 0 0 0.2589,-0.23823 66.145827,66.145827 0 0 0 0.25735,-0.23926 66.145827,66.145827 0 0 0 0.25631,-0.24081 66.145827,66.145827 0 0 0 0.25528,-0.24236 66.145827,66.145827 0 0 0 0.25373,-0.24392 66.145827,66.145827 0 0 0 0.25219,-0.24494 66.145827,66.145827 0 0 0 0.25114,-0.24598 66.145827,66.145827 0 0 0 0.25012,-0.24805 66.145827,66.145827 0 0 0 0.24856,-0.24908 66.145827,66.145827 0 0 0 0.24702,-0.25011 66.145827,66.145827 0 0 0 0.24597,-0.25167 66.145827,66.145827 0 0 0 0.24443,-0.25269 66.145827,66.145827 0 0 0 0.24288,-0.25425 66.145827,66.145827 0 0 0 0.24185,-0.2558 66.145827,66.145827 0 0 0 0.24081,-0.25683 66.145827,66.145827 0 0 0 0.23875,-0.25787 66.145827,66.145827 0 0 0 0.23771,-0.25942 66.145827,66.145827 0 0 0 0.23668,-0.26044 66.145827,66.145827 0 0 0 0.23461,-0.262 66.145827,66.145827 0 0 0 0.23357,-0.26304 66.145827,66.145827 0 0 0 0.23203,-0.26406 66.145827,66.145827 0 0 0 0.23099,-0.26562 66.145827,66.145827 0 0 0 0.22893,-0.26665 66.145827,66.145827 0 0 0 0.2279,-0.2682 66.145827,66.145827 0 0 0 0.22686,-0.26923 66.145827,66.145827 0 0 0 0.22479,-0.27027 66.145827,66.145827 0 0 0 0.22376,-0.27182 66.145827,66.145827 0 0 0 0.2222,-0.27285 66.145827,66.145827 0 0 0 0.22066,-0.27389 66.145827,66.145827 0 0 0 0.21911,-0.27492 66.145827,66.145827 0 0 0 0.21756,-0.27646 66.145827,66.145827 0 0 0 0.21652,-0.27751 66.145827,66.145827 0 0 0 0.21446,-0.27853 66.145827,66.145827 0 0 0 0.21343,-0.27957 66.145827,66.145827 0 0 0 0.21187,-0.28112 66.145827,66.145827 0 0 0 0.21032,-0.28164 66.145827,66.145827 0 0 0 0.20877,-0.28319 66.145827,66.145827 0 0 0 0.20722,-0.28422 66.145827,66.145827 0 0 0 0.20619,-0.28525 66.145827,66.145827 0 0 0 0.20413,-0.28629 66.145827,66.145827 0 0 0 0.20257,-0.28784 66.145827,66.145827 0 0 0 0.20154,-0.28835 66.145827,66.145827 0 0 0 0.19947,-0.2899 66.145827,66.145827 0 0 0 0.19792,-0.29043 66.145827,66.145827 0 0 0 0.19688,-0.29197 66.145827,66.145827 0 0 0 0.19482,-0.29249 66.145827,66.145827 0 0 0 0.19379,-0.29403 66.145827,66.145827 0 0 0 0.19172,-0.29456 66.145827,66.145827 0 0 0 0.19017,-0.29611 66.145827,66.145827 0 0 0 0.18914,-0.29662 66.145827,66.145827 0 0 0 0.18707,-0.29766 66.145827,66.145827 0 0 0 0.18551,-0.2992 66.145827,66.145827 0 0 0 0.18397,-0.29973 66.145827,66.145827 0 0 0 0.18242,-0.30075 66.145827,66.145827 0 0 0 0.18087,-0.30179 66.145827,66.145827 0 0 0 0.17931,-0.30283 66.145827,66.145827 0 0 0 0.17725,-0.30334 66.145827,66.145827 0 0 0 0.17622,-0.30489 66.145827,66.145827 0 0 0 0.17415,-0.30541 66.145827,66.145827 0 0 0 0.17312,-0.30644 66.145827,66.145827 0 0 0 0.17104,-0.30747 66.145827,66.145827 0 0 0 0.16899,-0.30851 66.145827,66.145827 0 0 0 0.16795,-0.30903 66.145827,66.145827 0 0 0 0.16639,-0.31005 66.145827,66.145827 0 0 0 0.16433,-0.3111 66.145827,66.145827 0 0 0 0.16279,-0.31161 66.145827,66.145827 0 0 0 0.16123,-0.31264 66.145827,66.145827 0 0 0 0.15968,-0.31367 66.145827,66.145827 0 0 0 0.15761,-0.3142 66.145827,66.145827 0 0 0 0.15658,-0.31522 66.145827,66.145827 0 0 0 0.15451,-0.31626 66.145827,66.145827 0 0 0 0.15245,-0.31678 66.145827,66.145827 0 0 0 0.15141,-0.31781 66.145827,66.145827 0 0 0 0.14934,-0.31833 66.145827,66.145827 0 0 0 0.1478,-0.31936 66.145827,66.145827 0 0 0 0.14573,-0.31987 66.145827,66.145827 0 0 0 0.14469,-0.32091 66.145827,66.145827 0 0 0 0.14263,-0.32143 66.145827,66.145827 0 0 0 0.14107,-0.32246 66.145827,66.145827 0 0 0 0.13901,-0.32298 66.145827,66.145827 0 0 0 0.13746,-0.32349 66.145827,66.145827 0 0 0 0.13591,-0.32453 66.145827,66.145827 0 0 0 0.13384,-0.32556 66.145827,66.145827 0 0 0 0.13229,-0.32608 66.145827,66.145827 0 0 0 0.13075,-0.3266 66.145827,66.145827 0 0 0 0.12867,-0.32711 66.145827,66.145827 0 0 0 0.12712,-0.32814 66.145827,66.145827 0 0 0 0.12506,-0.32867 66.145827,66.145827 0 0 0 0.12403,-0.32918 66.145827,66.145827 0 0 0 0.12143,-0.33021 66.145827,66.145827 0 0 0 0.12041,-0.33073 66.145827,66.145827 0 0 0 0.11834,-0.33124 66.145827,66.145827 0 0 0 0.11627,-0.33176 66.145827,66.145827 0 0 0 0.11472,-0.3328 66.145827,66.145827 0 0 0 0.11317,-0.3328 66.145827,66.145827 0 0 0 0.11111,-0.33383 66.145827,66.145827 0 0 0 0.10955,-0.33434 66.145827,66.145827 0 0 0 0.10801,-0.33487 66.145827,66.145827 0 0 0 0.10593,-0.33538 66.145827,66.145827 0 0 0 0.10387,-0.33641 66.145827,66.145827 0 0 0 0.10232,-0.33641 66.145827,66.145827 0 0 0 0.10077,-0.33694 66.145827,66.145827 0 0 0 0.0987,-0.33796 66.145827,66.145827 0 0 0 0.0966,-0.33796 66.145827,66.145827 0 0 0 0.0951,-0.33848 66.145827,66.145827 0 0 0 0.0935,-0.33952 66.145827,66.145827 0 0 0 0.0915,-0.33951 66.145827,66.145827 0 0 0 0.0899,-0.34003 66.145827,66.145827 0 0 0 0.0879,-0.34055 66.145827,66.145827 0 0 0 0.0863,-0.34107 66.145827,66.145827 0 0 0 0.0842,-0.34157 66.145827,66.145827 0 0 0 0.0822,-0.3421 66.145827,66.145827 0 0 0 0.0811,-0.34262 66.145827,66.145827 0 0 0 0.0785,-0.34261 66.145827,66.145827 0 0 0 0.077,-0.34313 66.145827,66.145827 0 0 0 0.0754,-0.34365 66.145827,66.145827 0 0 0 0.0734,-0.34417 66.145827,66.145827 0 0 0 0.0713,-0.34468 66.145827,66.145827 0 0 0 0.0698,-0.34468 66.145827,66.145827 0 0 0 0.0677,-0.3452 66.145827,66.145827 0 0 0 0.0661,-0.3452 66.145827,66.145827 0 0 0 0.0641,-0.34623 66.145827,66.145827 0 0 0 0.0625,-0.34623 66.145827,66.145827 0 0 0 0.0605,-0.34623 66.145827,66.145827 0 0 0 0.0584,-0.34675 66.145827,66.145827 0 0 0 0.0568,-0.34727 66.145827,66.145827 0 0 0 0.0553,-0.34778 66.145827,66.145827 0 0 0 0.0527,-0.34778 66.145827,66.145827 0 0 0 0.0517,-0.34779 66.145827,66.145827 0 0 0 0.0491,-0.3483 66.145827,66.145827 0 0 0 0.0476,-0.34881 66.145827,66.145827 0 0 0 0.046,-0.34882 66.145827,66.145827 0 0 0 0.0439,-0.34881 66.145827,66.145827 0 0 0 0.0419,-0.34934 66.145827,66.145827 0 0 0 0.0403,-0.34933 66.145827,66.145827 0 0 0 0.0382,-0.34985 66.145827,66.145827 0 0 0 0.0362,-0.34985 66.145827,66.145827 0 0 0 0.0346,-0.34985 66.145827,66.145827 0 0 0 0.0325,-0.35036 66.145827,66.145827 0 0 0 0.031,-0.35037 66.145827,66.145827 0 0 0 0.0289,-0.35088 66.145827,66.145827 0 0 0 0.0269,-0.35037 66.145827,66.145827 0 0 0 0.0253,-0.35088 66.145827,66.145827 0 0 0 0.0233,-0.3514 66.145827,66.145827 0 0 0 0.0217,-0.35088 66.145827,66.145827 0 0 0 0.0196,-0.3514 66.145827,66.145827 0 0 0 0.0176,-0.3514 66.145827,66.145827 0 0 0 0.016,-0.3514 66.145827,66.145827 0 0 0 0.0139,-0.3514 66.145827,66.145827 0 0 0 0.0124,-0.3514 66.145827,66.145827 0 0 0 0.0104,-0.35192 66.145827,66.145827 0 0 0 0.008,-0.3514 66.145827,66.145827 0 0 0 0.007,-0.35192 66.145827,66.145827 0 0 0 0.005,-0.35191 66.145827,66.145827 0 0 0 0.003,-0.3514 66.145827,66.145827 0 0 0 9.9e-4,-0.35187 v -0.12557 a 66.145827,66.145827 0 0 0 -0.002,-0.35192 66.145827,66.145827 0 0 0 -0.004,-0.3514 66.145827,66.145827 0 0 0 -0.005,-0.35192 66.145827,66.145827 0 0 0 -0.007,-0.35191 66.145827,66.145827 0 0 0 -0.009,-0.3514 66.145827,66.145827 0 0 0 -0.0108,-0.35192 66.145827,66.145827 0 0 0 -0.0129,-0.3514 66.145827,66.145827 0 0 0 -0.0145,-0.3514 66.145827,66.145827 0 0 0 -0.0165,-0.3514 66.145827,66.145827 0 0 0 -0.0186,-0.3514 66.145827,66.145827 0 0 0 -0.0202,-0.3514 66.145827,66.145827 0 0 0 -0.0222,-0.35088 66.145827,66.145827 0 0 0 -0.0243,-0.35088 66.145827,66.145827 0 0 0 -0.0258,-0.35089 66.145827,66.145827 0 0 0 -0.0279,-0.35088 66.145827,66.145827 0 0 0 -0.0295,-0.35036 66.145827,66.145827 0 0 0 -0.0315,-0.35037 66.145827,66.145827 0 0 0 -0.0336,-0.35037 66.145827,66.145827 0 0 0 -0.0351,-0.34985 66.145827,66.145827 0 0 0 -0.0367,-0.34985 66.145827,66.145827 0 0 0 -0.0393,-0.34933 66.145827,66.145827 0 0 0 -0.0408,-0.34985 66.145827,66.145827 0 0 0 -0.0424,-0.34882 66.145827,66.145827 0 0 0 -0.0444,-0.34933 66.145827,66.145827 0 0 0 -0.0465,-0.3483 66.145827,66.145827 0 0 0 -0.0481,-0.34881 66.145827,66.145827 0 0 0 -0.0501,-0.34778 66.145827,66.145827 0 0 0 -0.0522,-0.34831 66.145827,66.145827 0 0 0 -0.0537,-0.34726 66.145827,66.145827 0 0 0 -0.0558,-0.34778 66.145827,66.145827 0 0 0 -0.0574,-0.34675 66.145827,66.145827 0 0 0 -0.0594,-0.34675 66.145827,66.145827 0 0 0 -0.061,-0.34675 66.145827,66.145827 0 0 0 -0.063,-0.34571 66.145827,66.145827 0 0 0 -0.0646,-0.34572 66.145827,66.145827 0 0 0 -0.0667,-0.34571 66.145827,66.145827 0 0 0 -0.0687,-0.3452 66.145827,66.145827 0 0 0 -0.0703,-0.34468 66.145827,66.145827 0 0 0 -0.0723,-0.34417 66.145827,66.145827 0 0 0 -0.0739,-0.34365 66.145827,66.145827 0 0 0 -0.076,-0.34365 66.145827,66.145827 0 0 0 -0.0775,-0.34313 66.145827,66.145827 0 0 0 -0.0796,-0.34261 66.145827,66.145827 0 0 0 -0.0811,-0.3421 66.145827,66.145827 0 0 0 -0.0832,-0.3421 66.145827,66.145827 0 0 0 -0.0847,-0.34106 66.145827,66.145827 0 0 0 -0.0868,-0.34107 66.145827,66.145827 0 0 0 -0.0889,-0.34055 66.145827,66.145827 0 0 0 -0.0904,-0.34003 66.145827,66.145827 0 0 0 -0.092,-0.33951 66.145827,66.145827 0 0 0 -0.094,-0.339 66.145827,66.145827 0 0 0 -0.0956,-0.33848 66.145827,66.145827 0 0 0 -0.0977,-0.33796 66.145827,66.145827 0 0 0 -0.0992,-0.33745 66.145827,66.145827 0 0 0 -0.10129,-0.33693 66.145827,66.145827 0 0 0 -0.10283,-0.33641 66.145827,66.145827 0 0 0 -0.10491,-0.3359 66.145827,66.145827 0 0 0 -0.10645,-0.33486 66.145827,66.145827 0 0 0 -0.10852,-0.33487 66.145827,66.145827 0 0 0 -0.11007,-0.33434 66.145827,66.145827 0 0 0 -0.11214,-0.33332 66.145827,66.145827 0 0 0 -0.11317,-0.33279 66.145827,66.145827 0 0 0 -0.11576,-0.33228 66.145827,66.145827 0 0 0 -0.1173,-0.33176 66.145827,66.145827 0 0 0 -0.11886,-0.33125 66.145827,66.145827 0 0 0 -0.1204,-0.33021 66.145827,66.145827 0 0 0 -0.12248,-0.3297 66.145827,66.145827 0 0 0 -0.12454,-0.32918 66.145827,66.145827 0 0 0 -0.12557,-0.32866 66.145827,66.145827 0 0 0 -0.12816,-0.32763 66.145827,66.145827 0 0 0 -0.12919,-0.32711 66.145827,66.145827 0 0 0 -0.13126,-0.3266 66.145827,66.145827 0 0 0 -0.13281,-0.32555 66.145827,66.145827 0 0 0 -0.13487,-0.32505 66.145827,66.145827 0 0 0 -0.13643,-0.32401 66.145827,66.145827 0 0 0 -0.13797,-0.32401 66.145827,66.145827 0 0 0 -0.13953,-0.32246 66.145827,66.145827 0 0 0 -0.14159,-0.32195 66.145827,66.145827 0 0 0 -0.14366,-0.32143 66.145827,66.145827 0 0 0 -0.1447,-0.32039 66.145827,66.145827 0 0 0 -0.14676,-0.31988 66.145827,66.145827 0 0 0 -0.14831,-0.31884 66.145827,66.145827 0 0 0 -0.14986,-0.31833 66.145827,66.145827 0 0 0 -0.15193,-0.31729 66.145827,66.145827 0 0 0 -0.15348,-0.31678 66.145827,66.145827 0 0 0 -0.15503,-0.31574 66.145827,66.145827 0 0 0 -0.15658,-0.31471 66.145827,66.145827 0 0 0 -0.15865,-0.31419 66.145827,66.145827 0 0 0 -0.16019,-0.31316 66.145827,66.145827 0 0 0 -0.16175,-0.31264 66.145827,66.145827 0 0 0 -0.1633,-0.3111 66.145827,66.145827 0 0 0 -0.16536,-0.31109 66.145827,66.145827 0 0 0 -0.1664,-0.30954 66.145827,66.145827 0 0 0 -0.16847,-0.30902 66.145827,66.145827 0 0 0 -0.17001,-0.308 66.145827,66.145827 0 0 0 -0.17157,-0.30695 66.145827,66.145827 0 0 0 -0.17363,-0.30593 66.145827,66.145827 0 0 0 -0.17467,-0.3054 66.145827,66.145827 0 0 0 -0.17673,-0.30438 66.145827,66.145827 0 0 0 -0.17828,-0.30334 66.145827,66.145827 0 0 0 -0.17984,-0.30231 66.145827,66.145827 0 0 0 -0.18138,-0.30127 66.145827,66.145827 0 0 0 -0.18293,-0.30024 66.145827,66.145827 0 0 0 -0.18449,-0.29973 66.145827,66.145827 0 0 0 -0.18604,-0.29868 66.145827,66.145827 0 0 0 -0.18758,-0.29714 66.145827,66.145827 0 0 0 -0.18965,-0.29663 66.145827,66.145827 0 0 0 -0.19069,-0.29559 66.145827,66.145827 0 0 0 -0.19275,-0.29455 66.145827,66.145827 0 0 0 -0.19379,-0.29301 66.145827,66.145827 0 0 0 -0.19585,-0.29248 66.145827,66.145827 0 0 0 -0.19689,-0.29146 66.145827,66.145827 0 0 0 -0.19896,-0.29042 66.145827,66.145827 0 0 0 -0.19998,-0.28887 66.145827,66.145827 0 0 0 -0.20206,-0.28836 66.145827,66.145827 0 0 0 -0.20309,-0.28732 66.145827,66.145827 0 0 0 -0.20463,-0.28577 66.145827,66.145827 0 0 0 -0.20671,-0.28474 66.145827,66.145827 0 0 0 -0.20774,-0.28422 66.145827,66.145827 0 0 0 -0.20929,-0.28267 66.145827,66.145827 0 0 0 -0.21084,-0.28163 66.145827,66.145827 0 0 0 -0.21239,-0.28009 66.145827,66.145827 0 0 0 -0.21394,-0.27957 66.145827,66.145827 0 0 0 -0.21497,-0.27802 66.145827,66.145827 0 0 0 -0.21704,-0.27698 66.145827,66.145827 0 0 0 -0.21808,-0.27596 66.145827,66.145827 0 0 0 -0.22014,-0.27492 66.145827,66.145827 0 0 0 -0.22118,-0.27336 66.145827,66.145827 0 0 0 -0.2222,-0.27234 66.145827,66.145827 0 0 0 -0.22428,-0.2713 66.145827,66.145827 0 0 0 -0.22582,-0.26975 66.145827,66.145827 0 0 0 -0.22687,-0.26872 66.145827,66.145827 0 0 0 -0.22841,-0.26768 66.145827,66.145827 0 0 0 -0.22944,-0.26665 66.145827,66.145827 0 0 0 -0.23151,-0.2651 66.145827,66.145827 0 0 0 -0.23254,-0.26355 66.145827,66.145827 0 0 0 -0.2341,-0.26304 66.145827,66.145827 0 0 0 -0.23512,-0.26096 66.145827,66.145827 0 0 0 -0.2372,-0.26045 66.145827,66.145827 0 0 0 -0.23823,-0.2589 66.145827,66.145827 0 0 0 -0.23926,-0.25735 66.145827,66.145827 0 0 0 -0.24081,-0.25631 66.145827,66.145827 0 0 0 -0.24236,-0.25528 66.145827,66.145827 0 0 0 -0.24392,-0.25374 66.145827,66.145827 0 0 0 -0.24494,-0.25218 66.145827,66.145827 0 0 0 -0.24598,-0.25114 66.145827,66.145827 0 0 0 -0.24805,-0.25012 66.145827,66.145827 0 0 0 -0.24908,-0.24856 66.145827,66.145827 0 0 0 -0.25011,-0.24701 66.145827,66.145827 0 0 0 -0.25167,-0.24598 66.145827,66.145827 0 0 0 -0.25269,-0.24443 66.145827,66.145827 0 0 0 -0.25425,-0.24288 66.145827,66.145827 0 0 0 -0.2558,-0.24185 66.145827,66.145827 0 0 0 -0.25683,-0.24081 66.145827,66.145827 0 0 0 -0.25787,-0.23875 66.145827,66.145827 0 0 0 -0.25942,-0.23771 66.145827,66.145827 0 0 0 -0.26044,-0.23668 66.145827,66.145827 0 0 0 -0.262,-0.23461 66.145827,66.145827 0 0 0 -0.26304,-0.23357 66.145827,66.145827 0 0 0 -0.26406,-0.23203 66.145827,66.145827 0 0 0 -0.26562,-0.231 66.145827,66.145827 0 0 0 -0.26665,-0.22892 66.145827,66.145827 0 0 0 -0.2682,-0.2279 66.145827,66.145827 0 0 0 -0.26923,-0.22685 66.145827,66.145827 0 0 0 -0.27027,-0.2248 66.145827,66.145827 0 0 0 -0.27182,-0.22376 66.145827,66.145827 0 0 0 -0.27285,-0.2222 66.145827,66.145827 0 0 0 -0.27389,-0.22066 66.145827,66.145827 0 0 0 -0.27492,-0.21911 66.145827,66.145827 0 0 0 -0.27646,-0.21756 66.145827,66.145827 0 0 0 -0.27751,-0.21652 66.145827,66.145827 0 0 0 -0.27853,-0.21446 66.145827,66.145827 0 0 0 -0.27957,-0.21342 66.145827,66.145827 0 0 0 -0.28112,-0.21188 66.145827,66.145827 0 0 0 -0.28164,-0.21032 66.145827,66.145827 0 0 0 -0.28319,-0.20877 66.145827,66.145827 0 0 0 -0.28422,-0.20723 66.145827,66.145827 0 0 0 -0.28525,-0.20618 66.145827,66.145827 0 0 0 -0.28629,-0.20413 66.145827,66.145827 0 0 0 -0.28784,-0.20257 66.145827,66.145827 0 0 0 -0.28835,-0.20154 66.145827,66.145827 0 0 0 -0.2899,-0.19947 66.145827,66.145827 0 0 0 -0.29043,-0.19792 66.145827,66.145827 0 0 0 -0.29197,-0.19689 66.145827,66.145827 0 0 0 -0.29249,-0.19482 66.145827,66.145827 0 0 0 -0.29403,-0.19378 66.145827,66.145827 0 0 0 -0.29456,-0.19172 66.145827,66.145827 0 0 0 -0.29611,-0.19017 66.145827,66.145827 0 0 0 -0.29662,-0.18914 66.145827,66.145827 0 0 0 -0.29766,-0.18707 66.145827,66.145827 0 0 0 -0.2992,-0.18551 66.145827,66.145827 0 0 0 -0.29973,-0.18397 66.145827,66.145827 0 0 0 -0.30075,-0.18242 66.145827,66.145827 0 0 0 -0.30179,-0.18087 66.145827,66.145827 0 0 0 -0.30283,-0.17931 66.145827,66.145827 0 0 0 -0.30334,-0.17725 66.145827,66.145827 0 0 0 -0.30489,-0.17622 66.145827,66.145827 0 0 0 -0.30541,-0.17415 66.145827,66.145827 0 0 0 -0.30644,-0.1726 66.145827,66.145827 0 0 0 -0.30747,-0.17157 66.145827,66.145827 0 0 0 -0.30851,-0.16898 66.145827,66.145827 0 0 0 -0.30903,-0.16795 66.145827,66.145827 0 0 0 -0.31005,-0.16639 66.145827,66.145827 0 0 0 -0.3111,-0.16433 66.145827,66.145827 0 0 0 -0.31161,-0.16279 66.145827,66.145827 0 0 0 -0.31264,-0.16123 66.145827,66.145827 0 0 0 -0.313666,-0.15968 66.145827,66.145827 0 0 0 -0.3142,-0.15761 66.145827,66.145827 0 0 0 -0.31522,-0.15658 66.145827,66.145827 0 0 0 -0.31626,-0.15451 66.145827,66.145827 0 0 0 -0.31678,-0.15245 66.145827,66.145827 0 0 0 -0.31781,-0.15141 66.145827,66.145827 0 0 0 -0.31833,-0.14934 66.145827,66.145827 0 0 0 -0.31936,-0.1478 66.145827,66.145827 0 0 0 -0.31987,-0.14573 66.145827,66.145827 0 0 0 -0.32091,-0.14469 66.145827,66.145827 0 0 0 -0.32143,-0.14263 66.145827,66.145827 0 0 0 -0.32246,-0.14056 66.145827,66.145827 0 0 0 -0.32298,-0.13952 66.145827,66.145827 0 0 0 -0.32349,-0.13746 66.145827,66.145827 0 0 0 -0.32453,-0.13591 66.145827,66.145827 0 0 0 -0.32556,-0.13384 66.145827,66.145827 0 0 0 -0.32608,-0.13229 66.145827,66.145827 0 0 0 -0.3266,-0.13075 66.145827,66.145827 0 0 0 -0.32711,-0.12867 66.145827,66.145827 0 0 0 -0.32814,-0.12712 66.145827,66.145827 0 0 0 -0.32867,-0.12506 66.145827,66.145827 0 0 0 -0.32918,-0.12403 66.145827,66.145827 0 0 0 -0.33021,-0.12143 66.145827,66.145827 0 0 0 -0.33073,-0.12041 66.145827,66.145827 0 0 0 -0.33124,-0.11834 66.145827,66.145827 0 0 0 -0.33176,-0.11627 66.145827,66.145827 0 0 0 -0.3328,-0.11472 66.145827,66.145827 0 0 0 -0.3328,-0.11317 66.145827,66.145827 0 0 0 -0.33383,-0.11111 66.145827,66.145827 0 0 0 -0.33434,-0.10955 66.145827,66.145827 0 0 0 -0.33487,-0.10801 66.145827,66.145827 0 0 0 -0.33538,-0.10593 66.145827,66.145827 0 0 0 -0.33641,-0.10387 66.145827,66.145827 0 0 0 -0.33641,-0.10232 66.145827,66.145827 0 0 0 -0.33694,-0.10077 66.145827,66.145827 0 0 0 -0.33791,-0.0987 66.145827,66.145827 0 0 0 -0.33796,-0.0966 66.145827,66.145827 0 0 0 -0.33848,-0.0951 66.145827,66.145827 0 0 0 -0.33952,-0.0935 66.145827,66.145827 0 0 0 -0.33951,-0.0915 66.145827,66.145827 0 0 0 -0.34003,-0.0899 66.145827,66.145827 0 0 0 -0.34055,-0.0879 66.145827,66.145827 0 0 0 -0.34107,-0.0863 66.145827,66.145827 0 0 0 -0.34158,-0.0842 66.145827,66.145827 0 0 0 -0.3421,-0.0822 66.145827,66.145827 0 0 0 -0.34261,-0.0806 66.145827,66.145827 0 0 0 -0.34261,-0.0791 66.145827,66.145827 0 0 0 -0.34314,-0.077 66.145827,66.145827 0 0 0 -0.34365,-0.0754 66.145827,66.145827 0 0 0 -0.34416,-0.0734 66.145827,66.145827 0 0 0 -0.34468,-0.0713 66.145827,66.145827 0 0 0 -0.34468,-0.0698 66.145827,66.145827 0 0 0 -0.3452,-0.0677 66.145827,66.145827 0 0 0 -0.3452,-0.0661 66.145827,66.145827 0 0 0 -0.34623,-0.0641 66.145827,66.145827 0 0 0 -0.34623,-0.0625 66.145827,66.145827 0 0 0 -0.34624,-0.0605 66.145827,66.145827 0 0 0 -0.34675,-0.0584 66.145827,66.145827 0 0 0 -0.34726,-0.0568 66.145827,66.145827 0 0 0 -0.34778,-0.0553 66.145827,66.145827 0 0 0 -0.34779,-0.0527 66.145827,66.145827 0 0 0 -0.34778,-0.0517 66.145827,66.145827 0 0 0 -0.3483,-0.0491 66.145827,66.145827 0 0 0 -0.34881,-0.0476 66.145827,66.145827 0 0 0 -0.34882,-0.046 66.145827,66.145827 0 0 0 -0.34881,-0.0439 66.145827,66.145827 0 0 0 -0.34934,-0.0419 66.145827,66.145827 0 0 0 -0.34933,-0.0403 66.145827,66.145827 0 0 0 -0.34985,-0.0382 66.145827,66.145827 0 0 0 -0.34985,-0.0362 66.145827,66.145827 0 0 0 -0.34985,-0.0346 66.145827,66.145827 0 0 0 -0.35036,-0.0326 66.145827,66.145827 0 0 0 -0.35037,-0.031 66.145827,66.145827 0 0 0 -0.35088,-0.0289 66.145827,66.145827 0 0 0 -0.35037,-0.0269 66.145827,66.145827 0 0 0 -0.35088,-0.0253 66.145827,66.145827 0 0 0 -0.3514,-0.0233 66.145827,66.145827 0 0 0 -0.35089,-0.0217 66.145827,66.145827 0 0 0 -0.3514,-0.0196 66.145827,66.145827 0 0 0 -0.35139,-0.0176 66.145827,66.145827 0 0 0 -0.35141,-0.016 66.145827,66.145827 0 0 0 -0.35139,-0.0139 66.145827,66.145827 0 0 0 -0.35141,-0.0124 66.145827,66.145827 0 0 0 -0.35191,-0.0103 66.145827,66.145827 0 0 0 -0.3514,-0.008 66.145827,66.145827 0 0 0 -0.35192,-0.007 66.145827,66.145827 0 0 0 -0.35191,-0.005 66.145827,66.145827 0 0 0 -0.3514,-0.003 66.145827,66.145827 0 0 0 -0.35192,-10e-4 z"
         style="fill:url(#linearGradient845);fill-opacity:1;stroke-width:1.32292;stroke-linecap:round"
         id="path3511" />
      <path
         d="m 76.092614,296.72142 a 66.145827,66.145827 0 0 0 0.0372,-0.003 66.145827,66.145827 0 0 0 0.35037,-0.0336 66.145827,66.145827 0 0 0 0.34985,-0.0351 66.145827,66.145827 0 0 0 0.34985,-0.0367 66.145827,66.145827 0 0 0 0.34933,-0.0393 66.145827,66.145827 0 0 0 0.34985,-0.0408 66.145827,66.145827 0 0 0 0.34882,-0.0424 66.145827,66.145827 0 0 0 0.34933,-0.0444 66.145827,66.145827 0 0 0 0.3483,-0.0465 66.145827,66.145827 0 0 0 0.34881,-0.0481 66.145827,66.145827 0 0 0 0.34778,-0.0501 66.145827,66.145827 0 0 0 0.34831,-0.0522 66.145827,66.145827 0 0 0 0.34726,-0.0537 66.145827,66.145827 0 0 0 0.34778,-0.0558 66.145827,66.145827 0 0 0 0.34675,-0.0574 66.145827,66.145827 0 0 0 0.34675,-0.0594 66.145827,66.145827 0 0 0 0.34675,-0.061 66.145827,66.145827 0 0 0 0.34571,-0.063 66.145827,66.145827 0 0 0 0.34572,-0.0646 66.145827,66.145827 0 0 0 0.34571,-0.0667 66.145827,66.145827 0 0 0 0.3452,-0.0687 66.145827,66.145827 0 0 0 0.34468,-0.0703 66.145827,66.145827 0 0 0 0.34417,-0.0723 66.145827,66.145827 0 0 0 0.34365,-0.0739 66.145827,66.145827 0 0 0 0.34365,-0.076 66.145827,66.145827 0 0 0 0.34313,-0.0775 66.145827,66.145827 0 0 0 0.34261,-0.0796 66.145827,66.145827 0 0 0 0.3421,-0.0811 66.145827,66.145827 0 0 0 0.3421,-0.0832 66.145827,66.145827 0 0 0 0.34106,-0.0847 66.145827,66.145827 0 0 0 0.34107,-0.0868 66.145827,66.145827 0 0 0 0.34055,-0.0889 66.145827,66.145827 0 0 0 0.34003,-0.0904 66.145827,66.145827 0 0 0 0.33951,-0.092 66.145827,66.145827 0 0 0 0.339,-0.094 66.145827,66.145827 0 0 0 0.33848,-0.0956 66.145827,66.145827 0 0 0 0.33796,-0.0977 66.145827,66.145827 0 0 0 0.33745,-0.0992 66.145827,66.145827 0 0 0 0.33693,-0.10129 66.145827,66.145827 0 0 0 0.33641,-0.10283 66.145827,66.145827 0 0 0 0.3359,-0.10491 66.145827,66.145827 0 0 0 0.33486,-0.10645 66.145827,66.145827 0 0 0 0.33487,-0.10852 66.145827,66.145827 0 0 0 0.33434,-0.11007 66.145827,66.145827 0 0 0 0.33332,-0.11214 66.145827,66.145827 0 0 0 0.33279,-0.11317 66.145827,66.145827 0 0 0 0.33228,-0.11575 66.145827,66.145827 0 0 0 0.33176,-0.11731 66.145827,66.145827 0 0 0 0.33125,-0.11885 66.145827,66.145827 0 0 0 0.33021,-0.12041 66.145827,66.145827 0 0 0 0.3297,-0.12247 66.145827,66.145827 0 0 0 0.32918,-0.12454 66.145827,66.145827 0 0 0 0.32866,-0.12558 66.145827,66.145827 0 0 0 0.32763,-0.12816 66.145827,66.145827 0 0 0 0.32711,-0.12919 66.145827,66.145827 0 0 0 0.3266,-0.13125 66.145827,66.145827 0 0 0 0.32555,-0.13281 66.145827,66.145827 0 0 0 0.32505,-0.13488 66.145827,66.145827 0 0 0 0.32401,-0.13643 66.145827,66.145827 0 0 0 0.32401,-0.13797 66.145827,66.145827 0 0 0 0.32246,-0.13953 66.145827,66.145827 0 0 0 0.32195,-0.14159 66.145827,66.145827 0 0 0 0.32143,-0.14366 66.145827,66.145827 0 0 0 0.32039,-0.1447 66.145827,66.145827 0 0 0 0.31988,-0.14676 66.145827,66.145827 0 0 0 0.31884,-0.14831 66.145827,66.145827 0 0 0 0.31833,-0.14986 66.145827,66.145827 0 0 0 0.31729,-0.15193 66.145827,66.145827 0 0 0 0.31678,-0.15348 66.145827,66.145827 0 0 0 0.31574,-0.15503 66.145827,66.145827 0 0 0 0.31471,-0.15658 66.145827,66.145827 0 0 0 0.31419,-0.15864 66.145827,66.145827 0 0 0 0.313156,-0.1602 66.145827,66.145827 0 0 0 0.31264,-0.16175 66.145827,66.145827 0 0 0 0.3111,-0.16329 66.145827,66.145827 0 0 0 0.31109,-0.16537 66.145827,66.145827 0 0 0 0.30954,-0.1664 66.145827,66.145827 0 0 0 0.30902,-0.16846 66.145827,66.145827 0 0 0 0.308,-0.17002 66.145827,66.145827 0 0 0 0.30695,-0.17156 66.145827,66.145827 0 0 0 0.30593,-0.17364 66.145827,66.145827 0 0 0 0.3054,-0.17466 66.145827,66.145827 0 0 0 0.30438,-0.17674 66.145827,66.145827 0 0 0 0.30334,-0.17828 66.145827,66.145827 0 0 0 0.30231,-0.17983 66.145827,66.145827 0 0 0 0.30127,-0.18139 66.145827,66.145827 0 0 0 0.30024,-0.18293 66.145827,66.145827 0 0 0 0.29973,-0.18449 66.145827,66.145827 0 0 0 0.29868,-0.18603 66.145827,66.145827 0 0 0 0.29714,-0.18759 66.145827,66.145827 0 0 0 0.29663,-0.18965 66.145827,66.145827 0 0 0 0.29559,-0.19069 66.145827,66.145827 0 0 0 0.29455,-0.19275 66.145827,66.145827 0 0 0 0.29301,-0.19379 66.145827,66.145827 0 0 0 0.29248,-0.19585 66.145827,66.145827 0 0 0 0.29146,-0.19689 66.145827,66.145827 0 0 0 0.29042,-0.19895 66.145827,66.145827 0 0 0 0.28887,-0.19999 66.145827,66.145827 0 0 0 0.28836,-0.20205 66.145827,66.145827 0 0 0 0.28732,-0.20309 66.145827,66.145827 0 0 0 0.28577,-0.20464 66.145827,66.145827 0 0 0 0.28474,-0.20671 66.145827,66.145827 0 0 0 0.28422,-0.20774 66.145827,66.145827 0 0 0 0.28267,-0.20928 66.145827,66.145827 0 0 0 0.28163,-0.21085 66.145827,66.145827 0 0 0 0.28009,-0.21238 66.145827,66.145827 0 0 0 0.27957,-0.21395 66.145827,66.145827 0 0 0 0.27802,-0.21497 66.145827,66.145827 0 0 0 0.27698,-0.21704 66.145827,66.145827 0 0 0 0.27596,-0.21808 66.145827,66.145827 0 0 0 0.27491,-0.22014 66.145827,66.145827 0 0 0 0.27337,-0.22117 66.145827,66.145827 0 0 0 0.27234,-0.22221 66.145827,66.145827 0 0 0 0.2713,-0.22428 66.145827,66.145827 0 0 0 0.26975,-0.22582 66.145827,66.145827 0 0 0 0.26872,-0.22686 66.145827,66.145827 0 0 0 0.26768,-0.22841 66.145827,66.145827 0 0 0 0.26665,-0.22944 66.145827,66.145827 0 0 0 0.2651,-0.23151 66.145827,66.145827 0 0 0 0.26355,-0.23255 66.145827,66.145827 0 0 0 0.26304,-0.23409 66.145827,66.145827 0 0 0 0.26096,-0.23513 66.145827,66.145827 0 0 0 0.26045,-0.2372 66.145827,66.145827 0 0 0 0.2589,-0.23822 66.145827,66.145827 0 0 0 0.25735,-0.23927 66.145827,66.145827 0 0 0 0.25631,-0.24081 66.145827,66.145827 0 0 0 0.25528,-0.24236 66.145827,66.145827 0 0 0 0.25373,-0.24391 66.145827,66.145827 0 0 0 0.25219,-0.24495 66.145827,66.145827 0 0 0 0.25114,-0.24598 66.145827,66.145827 0 0 0 0.25012,-0.24805 66.145827,66.145827 0 0 0 0.24856,-0.24908 66.145827,66.145827 0 0 0 0.24702,-0.25011 66.145827,66.145827 0 0 0 0.24597,-0.25167 66.145827,66.145827 0 0 0 0.24443,-0.25269 66.145827,66.145827 0 0 0 0.24288,-0.25425 66.145827,66.145827 0 0 0 0.24185,-0.2558 66.145827,66.145827 0 0 0 0.24081,-0.25683 66.145827,66.145827 0 0 0 0.23875,-0.25787 66.145827,66.145827 0 0 0 0.23771,-0.25941 66.145827,66.145827 0 0 0 0.23668,-0.26045 66.145827,66.145827 0 0 0 0.23461,-0.262 66.145827,66.145827 0 0 0 0.23357,-0.26303 66.145827,66.145827 0 0 0 0.23203,-0.26407 66.145827,66.145827 0 0 0 0.23099,-0.26562 66.145827,66.145827 0 0 0 0.22893,-0.26665 66.145827,66.145827 0 0 0 0.2279,-0.2682 66.145827,66.145827 0 0 0 0.22686,-0.26923 66.145827,66.145827 0 0 0 0.22479,-0.27027 66.145827,66.145827 0 0 0 0.22376,-0.27182 66.145827,66.145827 0 0 0 0.2222,-0.27285 66.145827,66.145827 0 0 0 0.22066,-0.27388 66.145827,66.145827 0 0 0 0.21911,-0.27492 66.145827,66.145827 0 0 0 0.21756,-0.27647 66.145827,66.145827 0 0 0 0.21652,-0.2775 66.145827,66.145827 0 0 0 0.21446,-0.27854 66.145827,66.145827 0 0 0 0.21343,-0.27957 66.145827,66.145827 0 0 0 0.21187,-0.28112 66.145827,66.145827 0 0 0 0.21032,-0.28164 66.145827,66.145827 0 0 0 0.20877,-0.28318 66.145827,66.145827 0 0 0 0.20722,-0.28422 66.145827,66.145827 0 0 0 0.20619,-0.28526 66.145827,66.145827 0 0 0 0.20413,-0.28629 66.145827,66.145827 0 0 0 0.20257,-0.28783 66.145827,66.145827 0 0 0 0.20154,-0.28836 66.145827,66.145827 0 0 0 0.19947,-0.2899 66.145827,66.145827 0 0 0 0.19792,-0.29042 66.145827,66.145827 0 0 0 0.19688,-0.29198 66.145827,66.145827 0 0 0 0.19482,-0.29249 66.145827,66.145827 0 0 0 0.19379,-0.29403 66.145827,66.145827 0 0 0 0.19172,-0.29456 66.145827,66.145827 0 0 0 0.19017,-0.29611 66.145827,66.145827 0 0 0 0.18914,-0.29662 66.145827,66.145827 0 0 0 0.18707,-0.29765 66.145827,66.145827 0 0 0 0.18551,-0.29921 66.145827,66.145827 0 0 0 0.18397,-0.29972 66.145827,66.145827 0 0 0 0.18242,-0.30076 66.145827,66.145827 0 0 0 0.18087,-0.30179 66.145827,66.145827 0 0 0 0.17931,-0.30283 66.145827,66.145827 0 0 0 0.17725,-0.30333 66.145827,66.145827 0 0 0 0.17622,-0.30489 66.145827,66.145827 0 0 0 0.17415,-0.30541 66.145827,66.145827 0 0 0 0.17312,-0.30644 66.145827,66.145827 0 0 0 0.17104,-0.30748 66.145827,66.145827 0 0 0 0.16899,-0.30851 66.145827,66.145827 0 0 0 0.16795,-0.30902 66.145827,66.145827 0 0 0 0.16639,-0.31006 66.145827,66.145827 0 0 0 0.16433,-0.31109 66.145827,66.145827 0 0 0 0.16279,-0.31161 66.145827,66.145827 0 0 0 0.16123,-0.31264 66.145827,66.145827 0 0 0 0.15968,-0.31368 66.145827,66.145827 0 0 0 0.15761,-0.31419 66.145827,66.145827 0 0 0 0.15658,-0.31523 66.145827,66.145827 0 0 0 0.15451,-0.31626 66.145827,66.145827 0 0 0 0.15245,-0.31678 66.145827,66.145827 0 0 0 0.15141,-0.31781 66.145827,66.145827 0 0 0 0.14934,-0.31832 66.145827,66.145827 0 0 0 0.1478,-0.31936 66.145827,66.145827 0 0 0 0.14573,-0.31988 66.145827,66.145827 0 0 0 0.14469,-0.32091 66.145827,66.145827 0 0 0 0.14263,-0.32143 66.145827,66.145827 0 0 0 0.14107,-0.32246 66.145827,66.145827 0 0 0 0.13901,-0.32298 66.145827,66.145827 0 0 0 0.13746,-0.32349 66.145827,66.145827 0 0 0 0.13591,-0.32453 66.145827,66.145827 0 0 0 0.13384,-0.32556 66.145827,66.145827 0 0 0 0.13229,-0.32608 66.145827,66.145827 0 0 0 0.13075,-0.32659 66.145827,66.145827 0 0 0 0.12867,-0.32711 66.145827,66.145827 0 0 0 0.12712,-0.32815 66.145827,66.145827 0 0 0 0.12506,-0.32866 66.145827,66.145827 0 0 0 0.12403,-0.32918 66.145827,66.145827 0 0 0 0.12143,-0.33021 66.145827,66.145827 0 0 0 0.12041,-0.33073 66.145827,66.145827 0 0 0 0.11834,-0.33125 66.145827,66.145827 0 0 0 0.11627,-0.33176 66.145827,66.145827 0 0 0 0.11472,-0.3328 66.145827,66.145827 0 0 0 0.11317,-0.3328 66.145827,66.145827 0 0 0 0.11111,-0.33383 66.145827,66.145827 0 0 0 0.10955,-0.33434 66.145827,66.145827 0 0 0 0.10801,-0.33486 66.145827,66.145827 0 0 0 0.10593,-0.33538 66.145827,66.145827 0 0 0 0.10387,-0.33642 66.145827,66.145827 0 0 0 0.10232,-0.33641 66.145827,66.145827 0 0 0 0.10077,-0.33693 66.145827,66.145827 0 0 0 0.0987,-0.33797 66.145827,66.145827 0 0 0 0.0966,-0.33796 66.145827,66.145827 0 0 0 0.0951,-0.33848 66.145827,66.145827 0 0 0 0.0935,-0.33951 66.145827,66.145827 0 0 0 0.0915,-0.33952 66.145827,66.145827 0 0 0 0.0899,-0.34003 66.145827,66.145827 0 0 0 0.0879,-0.34055 66.145827,66.145827 0 0 0 0.0863,-0.34106 66.145827,66.145827 0 0 0 0.0842,-0.34158 66.145827,66.145827 0 0 0 0.0822,-0.3421 66.145827,66.145827 0 0 0 0.0811,-0.34261 66.145827,66.145827 0 0 0 0.0785,-0.34262 66.145827,66.145827 0 0 0 0.077,-0.34313 66.145827,66.145827 0 0 0 0.0754,-0.34365 66.145827,66.145827 0 0 0 0.0734,-0.34417 66.145827,66.145827 0 0 0 0.0713,-0.34468 66.145827,66.145827 0 0 0 0.0698,-0.34468 66.145827,66.145827 0 0 0 0.0677,-0.3452 66.145827,66.145827 0 0 0 0.0661,-0.34519 66.145827,66.145827 0 0 0 0.0641,-0.34624 66.145827,66.145827 0 0 0 0.0625,-0.34623 66.145827,66.145827 0 0 0 0.0605,-0.34623 66.145827,66.145827 0 0 0 0.0584,-0.34675 66.145827,66.145827 0 0 0 0.0568,-0.34727 66.145827,66.145827 0 0 0 0.0553,-0.34778 66.145827,66.145827 0 0 0 0.0527,-0.34778 66.145827,66.145827 0 0 0 0.0517,-0.34778 66.145827,66.145827 0 0 0 0.0491,-0.3483 66.145827,66.145827 0 0 0 0.0476,-0.34882 66.145827,66.145827 0 0 0 0.046,-0.34881 66.145827,66.145827 0 0 0 0.0439,-0.34882 66.145827,66.145827 0 0 0 0.0419,-0.34933 66.145827,66.145827 0 0 0 0.0403,-0.34934 66.145827,66.145827 0 0 0 0.0382,-0.34984 66.145827,66.145827 0 0 0 0.0362,-0.34985 66.145827,66.145827 0 0 0 0.0346,-0.34985 66.145827,66.145827 0 0 0 0.0325,-0.35037 66.145827,66.145827 0 0 0 0.031,-0.35037 66.145827,66.145827 0 0 0 0.0289,-0.35088 66.145827,66.145827 0 0 0 0.0269,-0.35036 66.145827,66.145827 0 0 0 0.0253,-0.35089 66.145827,66.145827 0 0 0 0.0233,-0.3514 66.145827,66.145827 0 0 0 0.0217,-0.35088 66.145827,66.145827 0 0 0 0.0196,-0.3514 66.145827,66.145827 0 0 0 0.0176,-0.3514 66.145827,66.145827 0 0 0 0.016,-0.3514 66.145827,66.145827 0 0 0 0.0139,-0.3514 66.145827,66.145827 0 0 0 0.0124,-0.3514 66.145827,66.145827 0 0 0 0.0104,-0.35192 66.145827,66.145827 0 0 0 0.008,-0.3514 66.145827,66.145827 0 0 0 0.007,-0.35191 66.145827,66.145827 0 0 0 0.005,-0.35192 66.145827,66.145827 0 0 0 0.003,-0.3514 66.145827,66.145827 0 0 0 9.9e-4,-0.35192 v -0.12557 a 66.145827,66.145827 0 0 0 -0.002,-0.35192 66.145827,66.145827 0 0 0 -0.004,-0.3514 66.145827,66.145827 0 0 0 -0.005,-0.35192 66.145827,66.145827 0 0 0 -0.007,-0.35191 66.145827,66.145827 0 0 0 -0.009,-0.3514 66.145827,66.145827 0 0 0 -0.0108,-0.35192 66.145827,66.145827 0 0 0 -0.0129,-0.3514 66.145827,66.145827 0 0 0 -0.0145,-0.3514 66.145827,66.145827 0 0 0 -0.0165,-0.3514 66.145827,66.145827 0 0 0 -0.0186,-0.3514 66.145827,66.145827 0 0 0 -0.0202,-0.3514 66.145827,66.145827 0 0 0 -0.0222,-0.35088 66.145827,66.145827 0 0 0 -0.0243,-0.35088 66.145827,66.145827 0 0 0 -0.0258,-0.35089 66.145827,66.145827 0 0 0 -0.0279,-0.35088 66.145827,66.145827 0 0 0 -0.0295,-0.35036 66.145827,66.145827 0 0 0 -0.0315,-0.35037 66.145827,66.145827 0 0 0 -0.0336,-0.35037 66.145827,66.145827 0 0 0 -0.0351,-0.34985 66.145827,66.145827 0 0 0 -0.0367,-0.34985 66.145827,66.145827 0 0 0 -0.0393,-0.34933 66.145827,66.145827 0 0 0 -0.0408,-0.34985 66.145827,66.145827 0 0 0 -0.0424,-0.34882 66.145827,66.145827 0 0 0 -0.0444,-0.34933 66.145827,66.145827 0 0 0 -0.0465,-0.3483 66.145827,66.145827 0 0 0 -0.0481,-0.34881 66.145827,66.145827 0 0 0 -0.0501,-0.34778 66.145827,66.145827 0 0 0 -0.0522,-0.34831 66.145827,66.145827 0 0 0 -0.0537,-0.34726 66.145827,66.145827 0 0 0 -0.0558,-0.34778 66.145827,66.145827 0 0 0 -0.0574,-0.34675 66.145827,66.145827 0 0 0 -0.0233,-0.13694 l -28.02614,-18.25263 c 0,0 -10.970266,1.02314 -15.852256,2.9068 l -9.42733,-1.30794 c -3.2341,2.37209 -1.0915,7.19597 -1.45831,10.87531 l 0.78961,2.35024 -23.13192,-15.69671 c 0,0 -6.9392,2.40836 -11.66957,3.25613 l -9.56893,-1.26762 -3.55637,-0.15607 c -1.83233,1.34965 -2.73079,6.73334 -1.45779,10.87479 l 0.21911,4.92632 -11.12284,21.09225 z"
         style="fill:#800034;fill-opacity:1;stroke:none;stroke-width:0.264583px;stroke-linecap:butt;stroke-linejoin:miter;stroke-opacity:1"
         id="path3502" />
      <g
         style="fill:#ffffff"
         id="g3489"
         transform="translate(124.83964,-102.25033)">
        <g
           style="fill:#ffffff"
           transform="matrix(0.49613522,0,0,0.49613522,-139.55625,212.92369)"
           id="g3465">
          <path
             d="m 170.6638,205.39297 c -7.58428,1.78906 -4.82367,11.0465 -4.82367,11.0465 -3.27792,-4.03522 -1.52822,-9.30835 -1.52822,-9.30835 -8.87473,1.93742 -14.13701,8.4704 -14.13701,8.4704 2.00466,2.00465 8.30044,4.79231 8.30044,4.79231 -2.86188,0 -9.98452,-2.67562 -9.98452,-2.67562 -2.91445,0.0486 -5.49939,2.67562 -5.49939,2.67562 -5.16684,13.09677 0,23.7171 0,23.7171 8.48342,8.09099 17.88825,8.01916 17.88825,8.01916 -1.65935,0.74874 -8.9948,-0.0559 -8.9948,-0.0559 0,0 6.72047,7.72971 18.75393,7.68152 12.03345,-0.0482 18.69212,-7.69515 18.69212,-7.69515 -3.88684,0.98765 -9.11703,0.0663 -9.11703,0.0663 10.07253,-0.29682 18.09774,-7.99734 18.09774,-7.99734 4.25447,-10.49672 1.35235,-19.67912 1.35235,-19.67912 l -0.84159,-3.1405 c -0.84146,-3.14038 -6.1792,-3.57765 -6.1792,-3.57765 -2.35664,1.54345 -10.08768,2.61019 -10.08768,2.61019 4.45606,-1.3932 8.33998,-4.67825 8.33998,-4.67825 -5.68266,-7.20129 -13.7653,-8.46085 -13.7653,-8.46085 1.98584,5.32988 -1.76951,9.3706 -1.76951,9.3706 2.2097,-10.15091 -4.69689,-11.18101 -4.69689,-11.18101 z m -24.73364,16.79855 c 24.21959,12.42077 49.35595,0.19676 49.35595,0.19676 4.89751,8.48275 0,20.14309 0,20.14309 -3.25743,3.1822 -10.21401,5.56165 -10.21401,5.56165 0,0 -2.31034,1.00704 -4.73551,1.02199 -2.42516,0.0149 -4.14613,-0.94929 -4.14613,-0.94929 0,0 -2.4204,-1.8563 -5.75296,-1.8563 -2.14847,-0.10982 -5.37988,1.8563 -5.37988,1.8563 -1.64824,1.53596 -6.65635,0.56985 -6.65635,0.56985 -8.83841,-2.14506 -12.47111,-6.34189 -12.47111,-6.34189 -4.60587,-7.97761 0,-20.20216 0,-20.20216 z"
             style="fill:#ffffff;stroke:none;stroke-width:0.232663px;stroke-linecap:butt;stroke-linejoin:miter;stroke-opacity:1"
             id="path3459" />
          <path
             id="path3461"
             d="m 155.56486,227.9563 c 0,0 6.10752,1.22462 7.20943,1.10882 l -4.6028,17.65181 c 0,0 -3.24093,-0.76619 -6.90891,-2.83433 z"
             style="fill:#ffffff;fill-opacity:1;stroke:none;stroke-width:0.232663px;stroke-linecap:butt;stroke-linejoin:miter;stroke-opacity:1" />
          <path
             id="path3463"
             d="m 160.33826,246.97448 4.71585,-17.52217 2.65827,0.0433 -4.62652,17.48634 z"
             style="fill:#ffffff;fill-opacity:1;stroke:none;stroke-width:0.232663px;stroke-linecap:butt;stroke-linejoin:miter;stroke-opacity:1" />
        </g>
        <g
           id="g3473"
           transform="matrix(0.49613522,0,0,0.49613522,-114.83689,194.4581)"
           style="fill:#ffffff">
          <path
             id="path3467"
             style="fill:#ffffff;stroke:none;stroke-width:0.232663px;stroke-linecap:butt;stroke-linejoin:miter;stroke-opacity:1"
             d="m 169.71154,206.68127 c -7.58428,1.78906 -4.82367,11.0465 -4.82367,11.0465 -3.27792,-4.03522 -1.52822,-9.30835 -1.52822,-9.30835 -8.87473,1.93742 -14.13701,8.4704 -14.13701,8.4704 2.00466,2.00465 8.30044,4.79231 8.30044,4.79231 -2.86188,0 -9.98452,-2.67562 -9.98452,-2.67562 -2.91445,0.0486 -5.49939,2.67562 -5.49939,2.67562 -5.16684,13.09677 0,23.7171 0,23.7171 8.48342,8.09099 17.88825,8.01916 17.88825,8.01916 -1.65935,0.74874 -8.9948,-0.0559 -8.9948,-0.0559 0,0 6.72047,7.72971 18.75393,7.68152 12.03345,-0.0482 18.69212,-7.69515 18.69212,-7.69515 -3.88684,0.98765 -9.11703,0.0663 -9.11703,0.0663 10.07253,-0.29682 18.09774,-7.99734 18.09774,-7.99734 4.25447,-10.49672 1.35235,-19.67912 1.35235,-19.67912 l -0.84159,-3.1405 c -0.84146,-3.14038 -6.1792,-3.57765 -6.1792,-3.57765 -2.35664,1.54345 -10.08768,2.61019 -10.08768,2.61019 4.45606,-1.3932 8.33998,-4.67825 8.33998,-4.67825 -5.68266,-7.20129 -13.7653,-8.46085 -13.7653,-8.46085 1.98584,5.32988 -1.76951,9.3706 -1.76951,9.3706 2.2097,-10.15091 -4.69689,-11.18101 -4.69689,-11.18101 z m -24.73364,16.79855 c 24.21959,12.42077 49.35595,0.19676 49.35595,0.19676 4.89751,8.48275 0,20.14309 0,20.14309 -3.25743,3.1822 -10.21401,5.56165 -10.21401,5.56165 0,0 -2.31034,1.00704 -4.73551,1.02199 -2.42516,0.0149 -4.14613,-0.94929 -4.14613,-0.94929 0,0 -2.4204,-1.8563 -5.75296,-1.8563 -2.14847,-0.10982 -5.37988,1.8563 -5.37988,1.8563 -1.64824,1.53596 -6.65635,0.56985 -6.65635,0.56985 -8.83841,-2.14506 -12.47111,-6.34189 -12.47111,-6.34189 -4.60587,-7.97761 0,-20.20216 0,-20.20216 z" />
          <path
             style="fill:#ffffff;fill-opacity:1;stroke:none;stroke-width:0.232663px;stroke-linecap:butt;stroke-linejoin:miter;stroke-opacity:1"
             d="m 155.56486,227.9563 c 0,0 6.10752,1.22462 7.20943,1.10882 l -4.6028,17.65181 c 0,0 -3.24093,-0.76619 -6.90891,-2.83433 z"
             id="path3469" />
          <path
             style="fill:#ffffff;fill-opacity:1;stroke:none;stroke-width:0.232663px;stroke-linecap:butt;stroke-linejoin:miter;stroke-opacity:1"
             d="m 160.33826,246.97448 4.71585,-17.52217 2.65827,0.0433 -4.62652,17.48634 z"
             id="path3471" />
        </g>
        <g
           style="fill:#ffffff"
           transform="matrix(0.49613522,0,0,0.49613522,-163.90469,194.4581)"
           id="g3481">
          <path
             d="m 170.6638,205.39297 c -7.58428,1.78906 -4.82367,11.0465 -4.82367,11.0465 -3.27792,-4.03522 -1.52822,-9.30835 -1.52822,-9.30835 -8.87473,1.93742 -14.13701,8.4704 -14.13701,8.4704 2.00466,2.00465 8.30044,4.79231 8.30044,4.79231 -2.86188,0 -9.98452,-2.67562 -9.98452,-2.67562 -2.91445,0.0486 -5.49939,2.67562 -5.49939,2.67562 -5.16684,13.09677 0,23.7171 0,23.7171 8.48342,8.09099 17.88825,8.01916 17.88825,8.01916 -1.65935,0.74874 -8.9948,-0.0559 -8.9948,-0.0559 0,0 6.72047,7.72971 18.75393,7.68152 12.03345,-0.0482 18.69212,-7.69515 18.69212,-7.69515 -3.88684,0.98765 -9.11703,0.0663 -9.11703,0.0663 10.07253,-0.29682 18.09774,-7.99734 18.09774,-7.99734 4.25447,-10.49672 1.35235,-19.67912 1.35235,-19.67912 l -0.84159,-3.1405 c -0.84146,-3.14038 -6.1792,-3.57765 -6.1792,-3.57765 -2.35664,1.54345 -10.08768,2.61019 -10.08768,2.61019 4.45606,-1.3932 8.33998,-4.67825 8.33998,-4.67825 -5.68266,-7.20129 -13.7653,-8.46085 -13.7653,-8.46085 1.98584,5.32988 -1.76951,9.3706 -1.76951,9.3706 2.2097,-10.15091 -4.69689,-11.18101 -4.69689,-11.18101 z m -24.73364,16.79855 c 24.21959,12.42077 49.35595,0.19676 49.35595,0.19676 4.89751,8.48275 0,20.14309 0,20.14309 -3.25743,3.1822 -10.21401,5.56165 -10.21401,5.56165 0,0 -2.31034,1.00704 -4.73551,1.02199 -2.42516,0.0149 -4.14613,-0.94929 -4.14613,-0.94929 0,0 -2.4204,-1.8563 -5.75296,-1.8563 -2.14847,-0.10982 -5.37988,1.8563 -5.37988,1.8563 -1.64824,1.53596 -6.65635,0.56985 -6.65635,0.56985 -8.83841,-2.14506 -12.47111,-6.34189 -12.47111,-6.34189 -4.60587,-7.97761 0,-20.20216 0,-20.20216 z"
             style="fill:#ffffff;stroke:none;stroke-width:0.232663px;stroke-linecap:butt;stroke-linejoin:miter;stroke-opacity:1"
             id="path3475" />
          <path
             id="path3477"
             d="m 155.56486,227.9563 c 0,0 6.10752,1.22462 7.20943,1.10882 l -4.6028,17.65181 c 0,0 -3.24093,-0.76619 -6.90891,-2.83433 z"
             style="fill:#ffffff;fill-opacity:1;stroke:none;stroke-width:0.232663px;stroke-linecap:butt;stroke-linejoin:miter;stroke-opacity:1" />
          <path
             id="path3479"
             d="m 160.33826,246.97448 4.71585,-17.52217 2.65827,0.0433 -4.62652,17.48634 z"
             style="fill:#ffffff;fill-opacity:1;stroke:none;stroke-width:0.232663px;stroke-linecap:butt;stroke-linejoin:miter;stroke-opacity:1" />
        </g>
        <path
           d="m -41.602977,338.84899 c -3.234864,3.40845 -7.987744,5.53558 -13.206946,5.53558 -5.191868,0 -9.922038,-2.10517 -13.155784,-5.48235 -3.789468,1.24157 -8.287548,3.57418 -9.953399,7.85688 0,0 -2.317705,7.63444 -1.599385,15.72307 0,0 4.08419,7.36596 24.770581,7.36596 20.686389,0 24.770579,-7.36596 24.770579,-7.36596 l -0.216009,-9.4573 c 0,0 -0.447405,-9.38132 -7.287926,-12.62249 0,0 -1.87557,-0.80102 -4.121711,-1.55339 z"
           style="fill:#ffffff;stroke:none;stroke-width:0.340831px;stroke-linecap:butt;stroke-linejoin:miter;stroke-opacity:1"
           id="path3483" />
        <path
           d="m -16.872188,320.46252 c -3.231616,3.76845 -8.23712,6.15517 -13.765567,6.15517 -2.459373,0 -4.813011,-0.47677 -6.955131,-1.33325 0.192842,0.96067 0.298688,1.95169 0.298688,2.96933 0,2.96071 -0.859258,5.70833 -2.343525,8.06876 1.006729,0.36551 2.1077,0.79547 3.337263,1.32188 l 0.05116,0.0217 0.05271,0.0253 c 0,0 5.952329,2.85528 8.188648,10.34252 0.152156,7.9e-4 0.296889,0.005 0.451136,0.005 18.211423,0 21.8074516,-6.48436 21.8074516,-6.48436 l -0.1906852,-8.32611 c 0,0 -0.393528,-8.25911 -6.4156294,-11.1125 0,0 -2.170515,-0.92728 -4.516519,-1.65364 z"
           style="fill:#ffffff;stroke:none;stroke-width:0.300053px;stroke-linecap:butt;stroke-linejoin:miter;stroke-opacity:1"
           id="path3485" />
        <path
           sodipodi:nodetypes="cscscccsccccc"
           id="path3487"
           style="fill:#ffffff;stroke:none;stroke-width:0.300053px;stroke-linecap:butt;stroke-linejoin:miter;stroke-opacity:1"
           d="m -92.742053,320.49646 c 3.23162,3.76845 8.23712,6.15517 13.76557,6.15517 2.45938,0 4.81302,-0.47677 6.95514,-1.33325 -0.19285,0.96067 -0.29869,1.95169 -0.29869,2.96933 0,2.96071 0.85926,5.70833 2.34352,8.06876 -1.00673,0.36551 -1.64857,0.83962 -2.87813,1.36603 -5.09475,2.73983 -7.00837,4.95691 -8.75168,10.34537 -0.15216,9.2e-4 -0.29689,0.005 -0.45114,0.005 -18.211417,0 -21.807447,-6.48435 -21.807447,-6.48435 l 0.19069,-8.32611 c 0,0 0.39352,-8.25911 6.415617,-11.1125 0,0 2.17052,-0.92728 4.51652,-1.65364 z" />
      </g>
    </g>
  </g>
</svg>
