<svg width="30" height="30" viewBox="0 0 30 30" fill="none" xmlns="http://www.w3.org/2000/svg">
<path d="M3.51562 4.6875H26.4844C26.6133 4.6875 26.7188 4.79297 26.7188 4.92188V6.79688C26.7188 6.92578 26.6133 7.03125 26.4844 7.03125H3.51562C3.38672 7.03125 3.28125 6.92578 3.28125 6.79688V4.92188C3.28125 4.79297 3.38672 4.6875 3.51562 4.6875ZM3.51562 22.9688H26.4844C26.6133 22.9688 26.7188 23.0742 26.7188 23.2031V25.0781C26.7188 25.207 26.6133 25.3125 26.4844 25.3125H3.51562C3.38672 25.3125 3.28125 25.207 3.28125 25.0781V23.2031C3.28125 23.0742 3.38672 22.9688 3.51562 22.9688ZM3.51562 13.8281H26.4844C26.6133 13.8281 26.7188 13.9336 26.7188 14.0625V15.9375C26.7188 16.0664 26.6133 16.1719 26.4844 16.1719H3.51562C3.38672 16.1719 3.28125 16.0664 3.28125 15.9375V14.0625C3.28125 13.9336 3.38672 13.8281 3.51562 13.8281Z" fill="black"/>
</svg>
