<svg xmlns="http://www.w3.org/2000/svg" width="84.551" height="118.04" viewBox="0 0 84.551 118.04">
  <g id="notfound" transform="translate(-0.5)">
    <path id="Trazado_1015" data-name="Trazado 1015" d="M.5,0H85.051V118.04H.5Zm0,0" fill="#e04149"/>
    <path id="Trazado_1016" data-name="Trazado 1016" d="M31.848,31.348h70.1v70.1h-70.1Zm0,0" transform="translate(-24.121 -24.121)" fill="#eaeaea"/>
    <path id="Trazado_1017" data-name="Trazado 1017" d="M122.37,103.163A26.856,26.856,0,0,1,95.55,130.05v7.684H71.782c3.016-14.976,7.937-39.286,8.387-40.6a18.671,18.671,0,0,1,9.85-10.927l1.1-.507v17.464a18.672,18.672,0,0,1,10.85-16.957l1.1-.507v17.464Zm0,0" transform="translate(-54.848 -65.942)" fill="#b75129"/>
    <path id="Trazado_1018" data-name="Trazado 1018" d="M262.206,161.449a26.835,26.835,0,0,1-1.495,8.863l-.136-.031a9.054,9.054,0,0,1-7.06-8.83h8.691Zm0,0" transform="translate(-194.684 -124.227)" fill="#353c44"/>
    <path id="Trazado_1019" data-name="Trazado 1019" d="M200.729,191.259a1.806,1.806,0,0,1-1.807-1.807V186.92a1.807,1.807,0,0,1,3.613,0v2.532A1.806,1.806,0,0,1,200.729,191.259Zm0,0" transform="translate(-152.676 -142.436)" fill="#353c44"/>
    <path id="Trazado_1020" data-name="Trazado 1020" d="M174.2,191.259a1.806,1.806,0,0,1-1.807-1.807V186.92a1.807,1.807,0,0,1,3.613,0v2.532A1.806,1.806,0,0,1,174.2,191.259Zm0,0" transform="translate(-132.262 -142.436)" fill="#353c44"/>
    <g id="Grupo_351" data-name="Grupo 351" transform="translate(11.82 85.704)">
      <path id="Trazado_1021" data-name="Trazado 1021" d="M109.706,375.355h-58.3a1.807,1.807,0,0,1,0-3.613h58.3a1.807,1.807,0,0,1,0,3.613Zm0,0" transform="translate(-49.602 -371.742)" fill="#eaeaea"/>
      <path id="Trazado_1022" data-name="Trazado 1022" d="M109.706,409.445h-58.3a1.807,1.807,0,0,1,0-3.613h58.3a1.807,1.807,0,0,1,0,3.613Zm0,0" transform="translate(-49.602 -397.973)" fill="#eaeaea"/>
      <path id="Trazado_1023" data-name="Trazado 1023" d="M109.706,443.535h-58.3a1.807,1.807,0,0,1,0-3.613h58.3a1.807,1.807,0,0,1,0,3.613Zm0,0" transform="translate(-49.602 -424.203)" fill="#eaeaea"/>
    </g>
  </g>
</svg>
